<svg width="33" height="33" viewBox="0 0 33 33" fill="none" xmlns="http://www.w3.org/2000/svg">
<g clip-path="url(#clip0_591_33)">
<path d="M26.7882 11.6168C26.6788 12.0808 26.0185 12.0808 25.9091 11.6168C25.6575 10.5476 25.137 9.57118 24.4033 8.79178C23.6695 8.01237 22.75 7.45934 21.7431 7.1918C21.2645 7.06477 21.2645 6.38555 21.7431 6.25852C22.75 5.99098 23.6695 5.43795 24.4033 4.65855C25.137 3.87914 25.6575 2.90267 25.9091 1.83352C26.0185 1.36956 26.6788 1.36956 26.7882 1.83352C27.0399 2.9029 27.5606 3.87952 28.2947 4.65894C29.0289 5.43836 29.9487 5.99126 30.9559 6.25852C31.4344 6.38564 31.4344 7.06468 30.9559 7.1918C29.9487 7.45906 29.0289 8.01196 28.2947 8.79138C27.5606 9.5708 27.0399 10.5474 26.7882 11.6168Z" fill="black"/>
<path d="M24.4718 31.8373L24.2803 32.4479C24.1337 32.915 23.4726 32.915 23.3261 32.4479L23.1346 31.8373C22.9471 31.2403 22.6313 30.6978 22.2122 30.2528C21.7931 29.8078 21.2821 29.4725 20.7198 29.2735L20.0454 29.035C19.601 28.8779 19.601 28.2494 20.0454 28.0922L20.7198 27.8538C21.2821 27.6547 21.7931 27.3194 22.2122 26.8744C22.6313 26.4294 22.9471 25.8869 23.1346 25.2899L23.3261 24.6794C23.4726 24.2122 24.1337 24.2122 24.2803 24.6794L24.4718 25.2899C24.6592 25.8869 24.975 26.4294 25.3942 26.8744C25.8133 27.3194 26.3243 27.6547 26.8866 27.8538L27.561 28.0922C28.0054 28.2494 28.0054 28.8779 27.561 29.035L26.8866 29.2735C26.3243 29.4725 25.8133 29.8078 25.3942 30.2528C24.975 30.6978 24.6592 31.2403 24.4718 31.8373Z" fill="black"/>
<path d="M12.7123 26.9688L14.0372 22.3308L14.0388 22.3292C14.3812 21.1312 15.0233 20.0402 15.9043 19.1591C16.7853 18.2781 17.8764 17.6361 19.0744 17.2936L23.7123 15.9688L19.0727 14.6422C17.8747 14.2998 16.7837 13.6578 15.9027 12.7767C15.0216 11.8957 14.3796 10.8047 14.0372 9.60668L12.7123 4.96875L11.3858 9.60831C11.0433 10.8063 10.4013 11.8973 9.52026 12.7784C8.63921 13.6594 7.54821 14.3014 6.35021 14.6439L1.71228 15.9688L6.35184 17.2953C7.54984 17.6377 8.64084 18.2797 9.52189 19.1608C10.4029 20.0418 11.045 21.1328 11.3874 22.3308L12.7123 26.9688Z" stroke="black" stroke-width="2.5" stroke-linecap="round" stroke-linejoin="round"/>
</g>
<defs>
<clipPath id="clip0_591_33">
<rect width="32" height="32" fill="white" transform="translate(0.156738 0.96875)"/>
</clipPath>
</defs>
</svg>
