<svg width="48" height="48" viewBox="0 0 48 48" fill="none" xmlns="http://www.w3.org/2000/svg">
<path d="M24 44H36C37.0609 44 38.0783 43.5786 38.8284 42.8284C39.5786 42.0783 40 41.0609 40 40V14L30 4H12C10.9391 4 9.92172 4.42143 9.17157 5.17157C8.42143 5.92172 8 6.93913 8 8V14" stroke="#070707" stroke-width="2.5" stroke-linecap="round" stroke-linejoin="round"/>
<path d="M28 4V12C28 13.0609 28.4214 14.0783 29.1716 14.8284C29.9217 15.5786 30.9391 16 32 16H40" stroke="#070707" stroke-width="2.5" stroke-linecap="round" stroke-linejoin="round"/>
<path d="M10 34C10.7879 34 11.5681 33.8448 12.2961 33.5433C13.0241 33.2417 13.6855 32.7998 14.2426 32.2426C14.7998 31.6855 15.2417 31.0241 15.5433 30.2961C15.8448 29.5681 16 28.7879 16 28C16 27.2121 15.8448 26.4319 15.5433 25.7039C15.2417 24.9759 14.7998 24.3145 14.2426 23.7574C13.6855 23.2002 13.0241 22.7583 12.2961 22.4567C11.5681 22.1552 10.7879 22 10 22C8.4087 22 6.88258 22.6321 5.75736 23.7574C4.63214 24.8826 4 26.4087 4 28C4 29.5913 4.63214 31.1174 5.75736 32.2426C6.88258 33.3679 8.4087 34 10 34Z" stroke="#070707" stroke-width="2.5" stroke-linecap="round" stroke-linejoin="round"/>
<path d="M14 33L16 44L10 42L4 44L6 33" stroke="#070707" stroke-width="2.5" stroke-linecap="round" stroke-linejoin="round"/>
</svg>
