<svg width="48" height="48" viewBox="0 0 48 48" fill="none" xmlns="http://www.w3.org/2000/svg">
<path d="M7.69453 17.2382C7.40261 15.9233 7.44743 14.5559 7.82484 13.2629C8.20225 11.9699 8.90002 10.7931 9.85346 9.84168C10.8069 8.89024 11.9851 8.19493 13.2789 7.82023C14.5727 7.44553 15.9402 7.40357 17.2545 7.69824C17.9779 6.56684 18.9745 5.63576 20.1524 4.99081C21.3303 4.34587 22.6516 4.00781 23.9945 4.00781C25.3374 4.00781 26.6587 4.34587 27.8366 4.99081C29.0145 5.63576 30.0111 6.56684 30.7345 7.69824C32.0509 7.40229 33.4207 7.44406 34.7165 7.81967C36.0124 8.19528 37.1922 8.89252 38.1462 9.84655C39.1002 10.8006 39.7975 11.9804 40.1731 13.2762C40.5487 14.5721 40.5905 15.9419 40.2945 17.2582C41.4259 17.9817 42.357 18.9782 43.002 20.1561C43.6469 21.334 43.985 22.6553 43.985 23.9982C43.985 25.3411 43.6469 26.6624 43.002 27.8403C42.357 29.0182 41.4259 30.0148 40.2945 30.7382C40.5892 32.0526 40.5472 33.42 40.1725 34.7138C39.7978 36.0076 39.1025 37.1859 38.1511 38.1393C37.1996 39.0927 36.0229 39.7905 34.7298 40.1679C33.4368 40.5453 32.0695 40.5902 30.7545 40.2982C30.0321 41.434 29.0347 42.369 27.8548 43.0169C26.6749 43.6647 25.3506 44.0043 24.0045 44.0043C22.6585 44.0043 21.3342 43.6647 20.1543 43.0169C18.9744 42.369 17.977 41.434 17.2545 40.2982C15.9402 40.5929 14.5727 40.551 13.2789 40.1763C11.9851 39.8016 10.8069 39.1062 9.85346 38.1548C8.90002 37.2034 8.20225 36.0266 7.82484 34.7336C7.44743 33.4406 7.40261 32.0732 7.69453 30.7582C6.55444 30.0367 5.61535 29.0386 4.96462 27.8567C4.31389 26.6748 3.97266 25.3475 3.97266 23.9982C3.97266 22.649 4.31389 21.3217 4.96462 20.1398C5.61535 18.9579 6.55444 17.9598 7.69453 17.2382Z" stroke="#070707" stroke-width="2.5" stroke-linecap="round" stroke-linejoin="round"/>
<path d="M18 24L22 28L30 20" stroke="#070707" stroke-width="2.5" stroke-linecap="round" stroke-linejoin="round"/>
</svg>
