<svg width="120" height="120" viewBox="0 0 120 120" fill="none" xmlns="http://www.w3.org/2000/svg">
<rect width="120" height="120" rx="8" fill="#F6F5F1"/>
<path d="M95.6447 93.7865H89.7141V40.4106C89.7434 39.9782 89.6269 39.5484 89.3832 39.1901C89.1395 38.8317 88.7827 38.5654 88.3698 38.4337L69.9452 32.3844V24.4769C69.9452 23.9526 69.737 23.4498 69.3662 23.079C68.9955 22.7083 68.4927 22.5 67.9683 22.5H32.3844C31.8601 22.5 31.3573 22.7083 30.9866 23.079C30.6158 23.4498 30.4075 23.9526 30.4075 24.4769V93.7865H24.4769C23.9526 93.7865 23.4498 93.9947 23.079 94.3655C22.7083 94.7362 22.5 95.2391 22.5 95.7634C22.5 96.2877 22.7083 96.7905 23.079 97.1612C23.4498 97.532 23.9526 97.7402 24.4769 97.7402H95.6447C96.169 97.7402 96.6719 97.532 97.0426 97.1612C97.4133 96.7905 97.6216 96.2877 97.6216 95.7634C97.6216 95.2391 97.4133 94.7362 97.0426 94.3655C96.6719 93.9947 96.169 93.7865 95.6447 93.7865ZM79.8297 74.0176H75.8759C75.3516 74.0176 74.8488 73.8093 74.478 73.4386C74.1073 73.0679 73.899 72.565 73.899 72.0407C73.899 71.5164 74.1073 71.0136 74.478 70.6429C74.8488 70.2721 75.3516 70.0638 75.8759 70.0638H79.8297C80.354 70.0638 80.8568 70.2721 81.2275 70.6429C81.5983 71.0136 81.8065 71.5164 81.8065 72.0407C81.8065 72.565 81.5983 73.0679 81.2275 73.4386C80.8568 73.8093 80.354 74.0176 79.8297 74.0176ZM81.8065 83.8625C81.8065 84.3868 81.5983 84.8896 81.2275 85.2604C80.8568 85.6311 80.354 85.8394 79.8297 85.8394H75.8759C75.3516 85.8394 74.8488 85.6311 74.478 85.2604C74.1073 84.8896 73.899 84.3868 73.899 83.8625C73.899 83.3382 74.1073 82.8354 74.478 82.4646C74.8488 82.0939 75.3516 81.8856 75.8759 81.8856H79.8297C80.3405 81.8852 80.8317 82.0826 81.2003 82.4364C81.5688 82.7902 81.7861 83.2729 81.8065 83.7834V83.8625ZM79.8297 62.1563H75.8759C75.3516 62.1563 74.8488 61.948 74.478 61.5773C74.1073 61.2066 73.899 60.7037 73.899 60.1794C73.899 59.6551 74.1073 59.1523 74.478 58.7816C74.8488 58.4108 75.3516 58.2025 75.8759 58.2025H79.8297C80.354 58.2025 80.8568 58.4108 81.2275 58.7816C81.5983 59.1523 81.8065 59.6551 81.8065 60.1794C81.8065 60.7037 81.5983 61.2066 81.2275 61.5773C80.8568 61.948 80.354 62.1563 79.8297 62.1563ZM79.8297 50.295H75.8759C75.3516 50.295 74.8488 50.0867 74.478 49.716C74.1073 49.3452 73.899 48.8424 73.899 48.3181C73.899 47.7938 74.1073 47.291 74.478 46.9202C74.8488 46.5495 75.3516 46.3412 75.8759 46.3412H79.8297C80.354 46.3412 80.8568 46.5495 81.2275 46.9202C81.5983 47.291 81.8065 47.7938 81.8065 48.3181C81.8065 48.8424 81.5983 49.3452 81.2275 49.716C80.8568 50.0867 80.354 50.295 79.8297 50.295ZM34.3613 26.5724H65.9915V93.7865H54.1302V83.7834H46.2226V93.7865H34.3613V26.5724ZM46.2226 74.0176H42.2688C41.7445 74.0176 41.2417 73.8093 40.871 73.4386C40.5002 73.0679 40.292 72.565 40.292 72.0407C40.292 71.5164 40.5002 71.0136 40.871 70.6429C41.2417 70.2721 41.7445 70.0638 42.2688 70.0638H46.2226C46.7469 70.0638 47.2497 70.2721 47.6205 70.6429C47.9912 71.0136 48.1995 71.5164 48.1995 72.0407C48.1995 72.565 47.9912 73.0679 47.6205 73.4386C47.2497 73.8093 46.7469 74.0176 46.2226 74.0176ZM52.3114 72.0407C52.3098 71.5427 52.4963 71.0624 52.8334 70.6959C53.1706 70.3294 53.6337 70.1037 54.1302 70.0638H58.0839C58.6082 70.0638 59.1111 70.2721 59.4818 70.6429C59.8525 71.0136 60.0608 71.5164 60.0608 72.0407C60.0608 72.565 59.8525 73.0679 59.4818 73.4386C59.1111 73.8093 58.6082 74.0176 58.0839 74.0176H54.1302C53.6197 73.9972 53.1369 73.7799 52.7831 73.4114C52.4293 73.0428 52.2319 72.5516 52.2323 72.0407H52.3114ZM40.1338 60.1794C40.1338 59.6551 40.3421 59.1523 40.7128 58.7816C41.0836 58.4108 41.5864 58.2025 42.1107 58.2025H46.2226C46.7469 58.2025 47.2497 58.4108 47.6205 58.7816C47.9912 59.1523 48.1995 59.6551 48.1995 60.1794C48.1995 60.7037 47.9912 61.2066 47.6205 61.5773C47.2497 61.948 46.7469 62.1563 46.2226 62.1563H42.2688C41.99 62.19 41.7072 62.1639 41.4393 62.0798C41.1714 61.9957 40.9244 61.8554 40.7149 61.6683C40.5054 61.4813 40.3382 61.2518 40.2244 60.995C40.1105 60.7383 40.0527 60.4603 40.0547 60.1794H40.1338ZM52.3114 60.1794C52.3098 59.6814 52.4963 59.2011 52.8334 58.8346C53.1706 58.4681 53.6337 58.2424 54.1302 58.2025H58.0839C58.6082 58.2025 59.1111 58.4108 59.4818 58.7816C59.8525 59.1523 60.0608 59.6551 60.0608 60.1794C60.0608 60.7037 59.8525 61.2066 59.4818 61.5773C59.1111 61.948 58.6082 62.1563 58.0839 62.1563H54.1302C53.6197 62.1359 53.1369 61.9186 52.7831 61.5501C52.4293 61.1815 52.2319 60.6903 52.2323 60.1794H52.3114ZM40.1338 48.3181C40.1338 47.7938 40.3421 47.291 40.7128 46.9202C41.0836 46.5495 41.5864 46.3412 42.1107 46.3412H46.2226C46.7469 46.3412 47.2497 46.5495 47.6205 46.9202C47.9912 47.291 48.1995 47.7938 48.1995 48.3181C48.1995 48.8424 47.9912 49.3452 47.6205 49.716C47.2497 50.0867 46.7469 50.295 46.2226 50.295H42.2688C41.99 50.3287 41.7072 50.3026 41.4393 50.2185C41.1714 50.1343 40.9244 49.9941 40.7149 49.807C40.5054 49.62 40.3382 49.3905 40.2244 49.1337C40.1105 48.877 40.0527 48.5989 40.0547 48.3181H40.1338ZM52.3114 48.3181C52.3098 47.8201 52.4963 47.3398 52.8334 46.9733C53.1706 46.6068 53.6337 46.3811 54.1302 46.3412H58.0839C58.6082 46.3412 59.1111 46.5495 59.4818 46.9202C59.8525 47.291 60.0608 47.7938 60.0608 48.3181C60.0608 48.8424 59.8525 49.3452 59.4818 49.716C59.1111 50.0867 58.6082 50.295 58.0839 50.295H54.1302C53.6197 50.2746 53.1369 50.0573 52.7831 49.6888C52.4293 49.3202 52.2319 48.829 52.2323 48.3181H52.3114ZM40.1338 36.4568C40.1338 35.9325 40.3421 35.4297 40.7128 35.0589C41.0836 34.6882 41.5864 34.4799 42.1107 34.4799H46.2226C46.7469 34.4799 47.2497 34.6882 47.6205 35.0589C47.9912 35.4297 48.1995 35.9325 48.1995 36.4568C48.1995 36.9811 47.9912 37.4839 47.6205 37.8547C47.2497 38.2254 46.7469 38.4337 46.2226 38.4337H42.2688C41.99 38.4674 41.7072 38.4413 41.4393 38.3572C41.1714 38.273 40.9244 38.1328 40.7149 37.9457C40.5054 37.7587 40.3382 37.5292 40.2244 37.2724C40.1105 37.0157 40.0527 36.7376 40.0547 36.4568H40.1338ZM52.3114 36.4568C52.3098 35.9588 52.4963 35.4785 52.8334 35.112C53.1706 34.7455 53.6337 34.5198 54.1302 34.4799H58.0839C58.6082 34.4799 59.1111 34.6882 59.4818 35.0589C59.8525 35.4297 60.0608 35.9325 60.0608 36.4568C60.0608 36.9811 59.8525 37.4839 59.4818 37.8547C59.1111 38.2254 58.6082 38.4337 58.0839 38.4337H54.1302C53.6197 38.4133 53.1369 38.196 52.7831 37.8274C52.4293 37.4589 52.2319 36.9677 52.2323 36.4568H52.3114Z" fill="#9B9B9B"/>
</svg>
