<svg width="24" height="25" viewBox="0 0 24 25" fill="none" xmlns="http://www.w3.org/2000/svg">
<path d="M21.9902 17.4201V20.4201C21.9913 20.6986 21.9343 20.9743 21.8227 21.2294C21.7111 21.4846 21.5475 21.7137 21.3422 21.902C21.137 22.0902 20.8947 22.2336 20.6309 22.3228C20.3671 22.412 20.0875 22.4452 19.8102 22.4201C16.733 22.0857 13.7772 21.0342 11.1802 19.3501C8.764 17.8148 6.7155 15.7663 5.18017 13.3501C3.49015 10.7413 2.43841 7.77109 2.11017 4.6801C2.08518 4.40356 2.11804 4.12486 2.20667 3.86172C2.29529 3.59859 2.43774 3.35679 2.62493 3.15172C2.81213 2.94665 3.03997 2.78281 3.29396 2.67062C3.54794 2.55843 3.82251 2.50036 4.10017 2.5001H7.10017C7.58547 2.49532 8.05596 2.66718 8.42393 2.98363C8.7919 3.30008 9.03224 3.73954 9.10017 4.2201C9.22679 5.18016 9.46162 6.12282 9.80017 7.0301C9.93471 7.38802 9.96383 7.77701 9.88407 8.15098C9.80432 8.52494 9.61903 8.86821 9.35017 9.1401L8.08017 10.4101C9.50372 12.9136 11.5766 14.9865 14.0802 16.4101L15.3502 15.1401C15.6221 14.8712 15.9653 14.6859 16.3393 14.6062C16.7133 14.5264 17.1022 14.5556 17.4602 14.6901C18.3674 15.0286 19.3101 15.2635 20.2702 15.3901C20.7559 15.4586 21.1996 15.7033 21.5167 16.0776C21.8338 16.4519 22.0023 16.9297 21.9902 17.4201Z" stroke="#4F4F4F" stroke-width="2" stroke-linecap="round" stroke-linejoin="round"/>
</svg>
