<svg width="25" height="25" viewBox="0 0 25 25" fill="none" xmlns="http://www.w3.org/2000/svg">
<path d="M12.1567 12.9688H12.1667" stroke="#4F4F4F" stroke-width="2" stroke-linecap="round" stroke-linejoin="round"/>
<path d="M16.1567 6.96875V4.96875C16.1567 4.43832 15.946 3.92961 15.571 3.55454C15.1959 3.17946 14.6872 2.96875 14.1567 2.96875H10.1567C9.62631 2.96875 9.1176 3.17946 8.74253 3.55454C8.36745 3.92961 8.15674 4.43832 8.15674 4.96875V6.96875" stroke="#4F4F4F" stroke-width="2" stroke-linecap="round" stroke-linejoin="round"/>
<path d="M22.1567 13.9688C19.1895 15.9277 15.7123 16.9721 12.1567 16.9721C8.60119 16.9721 5.12395 15.9277 2.15674 13.9688" stroke="#4F4F4F" stroke-width="2" stroke-linecap="round" stroke-linejoin="round"/>
<path d="M20.1567 6.96875H4.15674C3.05217 6.96875 2.15674 7.86418 2.15674 8.96875V18.9688C2.15674 20.0733 3.05217 20.9688 4.15674 20.9688H20.1567C21.2613 20.9688 22.1567 20.0733 22.1567 18.9688V8.96875C22.1567 7.86418 21.2613 6.96875 20.1567 6.96875Z" stroke="#4F4F4F" stroke-width="2" stroke-linecap="round" stroke-linejoin="round"/>
</svg>
