<svg width="74" height="74" viewBox="0 0 74 74" fill="none" xmlns="http://www.w3.org/2000/svg">
<rect x="0.5" y="0.5" width="73" height="73" rx="7.5" fill="#F8F6F4" stroke="#C8C8C8"/>
<path d="M43.6665 40.3341V36.3266C43.6665 36.0873 43.6665 35.9677 43.6301 35.862C43.5978 35.7686 43.5453 35.6835 43.4761 35.6129C43.3979 35.5331 43.2909 35.4796 43.0769 35.3726L36.9998 32.3341M26.3332 33.6674V42.7429C26.3332 43.2388 26.3332 43.4867 26.4105 43.7038C26.4789 43.8957 26.5904 44.0694 26.7363 44.2115C26.9015 44.3723 27.1269 44.4756 27.5776 44.6822L36.111 48.5933C36.438 48.7432 36.6014 48.8181 36.7718 48.8477C36.9227 48.8739 37.077 48.8739 37.2279 48.8477C37.3982 48.8181 37.5617 48.7432 37.8887 48.5933L46.422 44.6822C46.8728 44.4756 47.0982 44.3723 47.2633 44.2115C47.4093 44.0694 47.5208 43.8957 47.5891 43.7038C47.6665 43.4867 47.6665 43.2388 47.6665 42.7429V33.6674M23.6665 32.3341L36.5228 25.9059C36.6977 25.8185 36.7852 25.7747 36.8769 25.7575C36.9581 25.7423 37.0415 25.7423 37.1228 25.7575C37.2145 25.7747 37.302 25.8185 37.4769 25.9059L50.3332 32.3341L37.4769 38.7622C37.302 38.8497 37.2145 38.8934 37.1228 38.9106C37.0415 38.9259 36.9581 38.9259 36.8769 38.9106C36.7852 38.8934 36.6977 38.8497 36.5228 38.7622L23.6665 32.3341Z" stroke="#4F4F4F" stroke-width="2" stroke-linecap="round" stroke-linejoin="round"/>
</svg>
