<svg width="24" height="24" viewBox="0 0 24 24" fill="none" xmlns="http://www.w3.org/2000/svg">
<path d="M20.9072 7.14669L21.0133 7.04062L20.9072 6.93456L20.1947 6.22206L20.0887 6.11599L19.9826 6.22206L13.3826 12.8221C12.6162 13.5885 11.3237 13.5885 10.5572 12.8221L10.5569 12.8218L3.95694 6.25926L3.85087 6.15379L3.74511 6.25956L3.03261 6.97206L2.92654 7.07812L3.03261 7.18419L7.83904 11.9906L3.03261 16.7971L2.92654 16.9031L3.03261 17.0092L3.74511 17.7217L3.85117 17.8278L3.95724 17.7217L8.76367 12.9153L9.63261 13.7842C10.2593 14.4109 11.0844 14.7656 11.9512 14.7656C12.8179 14.7656 13.643 14.4109 14.2697 13.7842L15.1387 12.9153L19.9451 17.7217L20.0512 17.8278L20.1572 17.7217L20.8697 17.0092L20.9758 16.9031L20.8697 16.7971L16.0633 11.9906L20.9072 7.14669Z" fill="#070707" stroke="#070707" stroke-width="0.3"/>
<path d="M4.6043 19.0469H19.4168C20.3621 19.0469 21.1418 18.2672 21.1418 17.3219V6.74687C21.1418 5.80153 20.3621 5.02187 19.4168 5.02187H4.6043C3.65895 5.02187 2.8793 5.80153 2.8793 6.74687V17.3219C2.8793 18.2672 3.65895 19.0469 4.6043 19.0469ZM4.1918 6.70937C4.1918 6.49222 4.34964 6.33437 4.5668 6.33437H19.3793C19.5965 6.33437 19.7543 6.49222 19.7543 6.70937V17.2844C19.7543 17.5015 19.5965 17.6594 19.3793 17.6594H4.5668C4.34964 17.6594 4.1918 17.5015 4.1918 17.2844V6.70937Z" fill="#070707" stroke="#070707" stroke-width="0.3"/>
</svg>
