<svg width="40" height="41" viewBox="0 0 40 41" fill="none" xmlns="http://www.w3.org/2000/svg">
<g clip-path="url(#clip0_515_18701)">
<path d="M1.51786 4.04957L0.742053 22.1492C0.493793 28.1109 0.0283071 34.1032 0.0826138 40.0726C0.0903719 41.0304 3.09276 40.4021 3.1781 39.4748C3.73668 33.5362 3.78323 27.5208 4.03149 21.5591L4.79178 3.6511C4.84609 2.32543 1.5489 2.97677 1.51011 4.05723L1.51786 4.04957Z" fill="#070707"/>
<path d="M2.02213 5.17389C12.3947 4.64516 22.7518 3.63366 33.0468 2.30033L31.9839 1.17389C27.7635 4.56087 23.3802 7.71796 18.7796 10.5839C18.1047 11.0053 17.8952 11.6643 18.7952 11.9172C24.6448 13.5494 30.4944 15.1892 36.3362 16.8367L37.5543 15.0743C25.7464 17.1049 13.9308 19.2429 2.23936 21.8559C1.79715 21.9555 0.912723 22.331 0.935997 22.8904C0.959272 23.4498 1.82818 23.4957 2.2316 23.4191C13.8455 21.1739 25.4439 18.8597 37.1043 16.8521C37.6706 16.7524 38.524 16.5455 38.8421 15.9938C39.1214 15.5111 38.7956 15.2199 38.3223 15.0896C32.4649 13.4651 26.6076 11.8329 20.758 10.1931L20.7735 11.5264C25.5525 8.52255 30.1685 5.25819 34.5364 1.69497C35.4984 0.913358 34.164 0.468913 33.4735 0.56853C23.3026 1.9555 13.0697 2.87504 2.81346 3.5034C2.28591 3.53405 1.35494 3.85589 1.15322 4.40761C0.951514 4.95933 1.54113 5.19688 2.02213 5.17389Z" fill="#070707"/>
</g>
<defs>
<clipPath id="clip0_515_18701">
<rect width="39" height="40" fill="white" transform="translate(0.0826416 0.546875)"/>
</clipPath>
</defs>
</svg>
