<svg width="104" height="62" viewBox="0 0 104 62" fill="none" xmlns="http://www.w3.org/2000/svg">
<path fill-rule="evenodd" clip-rule="evenodd" d="M74.3666 58.0776C83.5627 58.2984 92.9605 57.8569 101.753 60.9876C102.278 61.1722 102.854 60.9033 103.044 60.3815C103.229 59.8597 102.959 59.2858 102.435 59.0971C93.4362 55.8941 83.8248 56.2955 74.4149 56.0707C73.8586 56.0547 73.395 56.4962 73.3829 57.0501C73.3667 57.604 73.8102 58.0616 74.3666 58.0776Z" fill="black"/>
<path fill-rule="evenodd" clip-rule="evenodd" d="M73.5402 44.785C76.4067 42.1592 79.5352 40.1921 83.3169 39.2171C83.8571 39.0782 84.1796 38.5303 84.0425 37.9941C83.9014 37.4579 83.3491 37.1356 82.8129 37.2745C78.7007 38.3341 75.2939 40.4541 72.1775 43.3075C71.7662 43.6824 71.738 44.3178 72.117 44.7256C72.4919 45.133 73.133 45.1599 73.5402 44.785Z" fill="black"/>
<path fill-rule="evenodd" clip-rule="evenodd" d="M65.5657 16.118C66.88 11.6327 69.4683 8.12386 73.4355 5.58998C73.9031 5.29096 74.0402 4.66964 73.7378 4.20364C73.4395 3.73764 72.8146 3.60197 72.3469 3.90099C67.9564 6.7066 65.0859 10.5895 63.6305 15.5557C63.4733 16.0871 63.7837 16.6451 64.3159 16.8C64.8521 16.9553 65.4125 16.6495 65.5657 16.118Z" fill="black"/>
<path fill-rule="evenodd" clip-rule="evenodd" d="M20.2702 10.0317C19.4881 10.948 18.7866 11.9354 18.1899 12.9866C17.9238 13.4546 17.4561 14.4492 17.3836 15.3022C17.3029 16.2109 17.6133 16.9775 18.4116 17.3813C19.4719 17.9167 20.3186 17.8609 20.9717 17.537C21.6007 17.226 22.0925 16.6147 22.4029 15.7951C22.9956 14.2285 22.9069 11.8343 22.5964 10.468C23.431 9.61068 24.3462 8.8332 25.3259 8.14203C32.6231 2.9944 43.3271 4.89251 51.5638 12.5893C54.4464 15.2841 55.8332 20.9435 56.5549 27.0496C57.6797 36.557 57.0387 47.1758 56.95 50.2868C56.9298 51.0551 57.0024 51.511 57.0427 51.6021C57.2322 52.0501 57.5668 52.1665 57.8007 52.2106C58.1393 52.2708 58.4094 52.2066 58.6271 52.0942C58.9214 51.9401 59.1634 51.6687 59.2763 51.2501C59.3367 51.0189 59.3528 50.697 59.3448 50.3539C59.3367 50.1158 59.2883 49.8557 59.3367 49.6852C59.6512 48.5926 60.0301 47.5258 60.401 46.4513C61.6388 42.8393 63.2393 39.4545 65.0173 36.0737C70.6656 25.3313 76.1284 13.9808 85.3891 5.7964C85.8043 5.42914 85.8447 4.79417 85.4738 4.37995C85.1069 3.96573 84.4699 3.92799 84.0506 4.29565C74.6045 12.6418 68.9925 24.1878 63.2313 35.1429C61.7194 38.0188 60.3325 40.8987 59.1795 43.911C59.2964 38.5823 59.252 31.2062 58.2723 24.6799C57.4015 18.8756 55.7445 13.746 52.9425 11.1263C43.9197 2.69457 32.1514 0.865512 24.1607 6.50483C23.306 7.1085 22.4917 7.77238 21.7337 8.49245C17.5529 0.976704 8.60268 -2.03563 0.692618 1.55908C0.184633 1.78907 -0.0371027 2.38471 0.1927 2.88844C0.426535 3.39216 1.02319 3.61454 1.53118 3.38455C8.6591 0.145451 16.7426 3.03614 20.2702 10.0317ZM20.8548 12.5479C20.5282 13.0071 20.2259 13.4831 19.9437 13.9752C19.7945 14.2393 19.5364 14.7471 19.4276 15.244C19.4034 15.3604 19.3994 15.5426 19.3994 15.6269C19.6776 15.7633 19.8953 15.8292 20.0726 15.7405C20.2944 15.6313 20.4073 15.3744 20.5162 15.0874C20.7903 14.3674 20.879 13.4129 20.8548 12.5479Z" fill="black"/>
</svg>
