<svg width="38" height="38" viewBox="0 0 38 38" fill="none" xmlns="http://www.w3.org/2000/svg">
<path d="M28.6004 26.6V19.568C28.6004 16.112 27.8564 13.472 23.8244 13.472C21.8804 13.472 20.5844 14.528 20.0564 15.536H20.0084V13.784H16.1924V26.6H20.1764V20.24C20.1764 18.56 20.4884 16.952 22.5524 16.952C24.5924 16.952 24.6164 18.848 24.6164 20.336V26.576H28.6004V26.6ZM9.71239 13.784H13.6964V26.6H9.71239V13.784ZM11.7044 7.4C10.4324 7.4 9.40039 8.432 9.40039 9.704C9.40039 10.976 10.4324 12.032 11.7044 12.032C12.9764 12.032 14.0084 10.976 14.0084 9.704C14.0084 8.432 12.9764 7.4 11.7044 7.4Z" fill="white"/>
</svg>
