<svg width="20" height="20" viewBox="0 0 20 20" fill="none" xmlns="http://www.w3.org/2000/svg">
<path d="M11.3333 7.33333H2.66667C2.48986 7.33333 2.32029 7.2631 2.19526 7.13807C2.07024 7.01305 2 6.84348 2 6.66667C2 6.48986 2.07024 6.32029 2.19526 6.19526C2.32029 6.07024 2.48986 6 2.66667 6H11.3333C11.5101 6 11.6797 6.07024 11.8047 6.19526C11.9298 6.32029 12 6.48986 12 6.66667C12 6.84348 11.9298 7.01305 11.8047 7.13807C11.6797 7.2631 11.5101 7.33333 11.3333 7.33333ZM17.3333 7.33333H14.6667C14.4899 7.33333 14.3203 7.2631 14.1953 7.13807C14.0702 7.01305 14 6.84348 14 6.66667C14 6.48986 14.0702 6.32029 14.1953 6.19526C14.3203 6.07024 14.4899 6 14.6667 6H17.3333C17.5101 6 17.6797 6.07024 17.8047 6.19526C17.9298 6.32029 18 6.48986 18 6.66667C18 6.84348 17.9298 7.01305 17.8047 7.13807C17.6797 7.2631 17.5101 7.33333 17.3333 7.33333Z" fill="#424737"/>
<path d="M13 8.9987C12.5385 8.9987 12.0874 8.86185 11.7037 8.60546C11.32 8.34907 11.0209 7.98465 10.8443 7.55829C10.6677 7.13193 10.6215 6.66278 10.7115 6.21015C10.8015 5.75753 11.0238 5.34177 11.3501 5.01545C11.6764 4.68913 12.0922 4.4669 12.5448 4.37687C12.9974 4.28683 13.4666 4.33304 13.8929 4.50965C14.3193 4.68625 14.6837 4.98532 14.9401 5.36903C15.1965 5.75275 15.3333 6.20388 15.3333 6.66537C15.3333 7.2842 15.0875 7.8777 14.6499 8.31528C14.2123 8.75287 13.6188 8.9987 13 8.9987ZM13 5.66537C12.8022 5.66537 12.6089 5.72401 12.4444 5.8339C12.28 5.94378 12.1518 6.09996 12.0761 6.28268C12.0004 6.46541 11.9806 6.66647 12.0192 6.86046C12.0578 7.05444 12.153 7.23262 12.2929 7.37247C12.4327 7.51232 12.6109 7.60757 12.8049 7.64615C12.9989 7.68474 13.2 7.66493 13.3827 7.58924C13.5654 7.51356 13.7216 7.38538 13.8315 7.22094C13.9414 7.05649 14 6.86315 14 6.66537C14 6.40015 13.8946 6.14579 13.7071 5.95826C13.5196 5.77072 13.2652 5.66537 13 5.66537ZM17.3333 13.9987H8.66667C8.48986 13.9987 8.32029 13.9285 8.19526 13.8034C8.07024 13.6784 8 13.5088 8 13.332C8 13.1552 8.07024 12.9857 8.19526 12.8606C8.32029 12.7356 8.48986 12.6654 8.66667 12.6654H17.3333C17.5101 12.6654 17.6797 12.7356 17.8047 12.8606C17.9298 12.9857 18 13.1552 18 13.332C18 13.5088 17.9298 13.6784 17.8047 13.8034C17.6797 13.9285 17.5101 13.9987 17.3333 13.9987ZM5.33333 13.9987H2.66667C2.48986 13.9987 2.32029 13.9285 2.19526 13.8034C2.07024 13.6784 2 13.5088 2 13.332C2 13.1552 2.07024 12.9857 2.19526 12.8606C2.32029 12.7356 2.48986 12.6654 2.66667 12.6654H5.33333C5.51014 12.6654 5.67971 12.7356 5.80474 12.8606C5.92976 12.9857 6 13.1552 6 13.332C6 13.5088 5.92976 13.6784 5.80474 13.8034C5.67971 13.9285 5.51014 13.9987 5.33333 13.9987Z" fill="#424737"/>
<path d="M6.9974 15.6667C6.53591 15.6667 6.08478 15.5298 5.70107 15.2734C5.31735 15.017 5.01828 14.6526 4.84168 14.2263C4.66507 13.7999 4.61887 13.3307 4.7089 12.8781C4.79893 12.4255 5.02116 12.0097 5.34748 11.6834C5.6738 11.3571 6.08956 11.1349 6.54219 11.0448C6.99481 10.9548 7.46396 11.001 7.89032 11.1776C8.31669 11.3542 8.6811 11.6533 8.93749 12.037C9.19388 12.4207 9.33073 12.8718 9.33073 13.3333C9.33073 13.9522 9.0849 14.5457 8.64731 14.9833C8.20973 15.4208 7.61624 15.6667 6.9974 15.6667ZM6.9974 12.3333C6.79962 12.3333 6.60628 12.392 6.44183 12.5019C6.27738 12.6117 6.1492 12.7679 6.07352 12.9507C5.99783 13.1334 5.97803 13.3344 6.01661 13.5284C6.0552 13.7224 6.15044 13.9006 6.29029 14.0404C6.43014 14.1803 6.60833 14.2755 6.80231 14.3141C6.99629 14.3527 7.19735 14.3329 7.38008 14.2572C7.56281 14.1815 7.71899 14.0534 7.82887 13.8889C7.93875 13.7245 7.9974 13.5311 7.9974 13.3333C7.9974 13.0681 7.89204 12.8138 7.7045 12.6262C7.51697 12.4387 7.26261 12.3333 6.9974 12.3333Z" fill="#424737"/>
</svg>
