<svg width="38" height="39" viewBox="0 0 38 39" fill="none" xmlns="http://www.w3.org/2000/svg">
<circle cx="19" cy="19.2422" r="19" fill="#070707"/>
<g clip-path="url(#clip0_515_19294)">
<path d="M22.9847 19.4249C20.7842 18.2489 16.5234 16.0391 16.5234 16.0391L22.2042 19.8572C22.2042 19.8572 21.1694 20.4312 22.9847 19.4249Z" fill="white"/>
<path d="M16.9397 28.0769C12.369 27.9928 10.8079 27.9171 9.84834 27.7194C9.19914 27.588 8.63498 27.2964 8.22132 26.8734C7.90162 26.5532 7.64737 26.0647 7.45012 25.387C7.28092 24.8224 7.21502 24.3527 7.12106 23.2052C6.97724 20.6155 6.94296 18.4983 7.12106 16.1326C7.268 14.8262 7.33925 13.2753 8.31528 12.3705C8.77613 11.947 9.31223 11.6745 9.91424 11.5619C10.8546 11.3833 14.8612 11.2422 19.0089 11.2422C23.1472 11.2422 27.1626 11.3833 28.1039 11.5619C28.856 11.703 29.5613 12.126 29.9754 12.6715C30.8659 14.0723 30.8815 15.8142 30.9719 17.1767C31.0093 17.8259 31.0093 21.5123 30.9719 22.1615C30.8312 24.3148 30.7181 25.0767 30.3984 25.8666C30.2007 26.3653 30.0319 26.6285 29.7398 26.9201C29.2817 27.3689 28.6977 27.6675 28.0656 27.7759C24.1103 28.0734 20.7516 28.1379 16.9397 28.0769ZM22.9967 19.4245C20.7962 18.2485 18.6892 17.158 16.5354 16.0293V22.7822C18.8018 21.5502 21.1911 20.4214 23.006 19.4151L22.9967 19.4245Z" fill="white"/>
</g>
<defs>
<clipPath id="clip0_515_19294">
<rect width="24" height="16.8576" fill="white" transform="translate(7 11.2422)"/>
</clipPath>
</defs>
</svg>
