<svg width="38" height="39" viewBox="0 0 38 39" fill="none" xmlns="http://www.w3.org/2000/svg">
<circle cx="19" cy="19.2422" r="19" fill="#070707"/>
<g clip-path="url(#clip0_515_19288)">
<path d="M23.5 7.24219H14.5C12.5109 7.24219 10.6032 8.03236 9.1967 9.43889C7.79018 10.8454 7 12.7531 7 14.7422L7 23.7422C7 25.7313 7.79018 27.639 9.1967 29.0455C10.6032 30.452 12.5109 31.2422 14.5 31.2422H23.5C25.4891 31.2422 27.3968 30.452 28.8033 29.0455C30.2098 27.639 31 25.7313 31 23.7422V14.7422C31 12.7531 30.2098 10.8454 28.8033 9.43889C27.3968 8.03236 25.4891 7.24219 23.5 7.24219ZM28.75 23.7422C28.75 26.6372 26.395 28.9922 23.5 28.9922H14.5C11.605 28.9922 9.25 26.6372 9.25 23.7422V14.7422C9.25 11.8472 11.605 9.49219 14.5 9.49219H23.5C26.395 9.49219 28.75 11.8472 28.75 14.7422V23.7422Z" fill="white"/>
<path d="M19 13.2422C17.4087 13.2422 15.8826 13.8743 14.7574 14.9995C13.6321 16.1248 13 17.6509 13 19.2422C13 20.8335 13.6321 22.3596 14.7574 23.4848C15.8826 24.61 17.4087 25.2422 19 25.2422C20.5913 25.2422 22.1174 24.61 23.2426 23.4848C24.3679 22.3596 25 20.8335 25 19.2422C25 17.6509 24.3679 16.1248 23.2426 14.9995C22.1174 13.8743 20.5913 13.2422 19 13.2422ZM19 22.9922C18.0058 22.991 17.0527 22.5955 16.3497 21.8925C15.6467 21.1895 15.2512 20.2364 15.25 19.2422C15.25 17.1737 16.933 15.4922 19 15.4922C21.067 15.4922 22.75 17.1737 22.75 19.2422C22.75 21.3092 21.067 22.9922 19 22.9922Z" fill="white"/>
<path d="M25.4479 13.5912C25.8895 13.5912 26.2474 13.2332 26.2474 12.7917C26.2474 12.3501 25.8895 11.9922 25.4479 11.9922C25.0064 11.9922 24.6484 12.3501 24.6484 12.7917C24.6484 13.2332 25.0064 13.5912 25.4479 13.5912Z" fill="white"/>
</g>
<defs>
<clipPath id="clip0_515_19288">
<rect width="24" height="24" fill="white" transform="translate(7 7.24219)"/>
</clipPath>
</defs>
</svg>
