<svg width="24" height="25" viewBox="0 0 24 25" fill="none" xmlns="http://www.w3.org/2000/svg">
<path d="M20.917 7.38888L21.0231 7.28281L20.917 7.17675L20.2045 6.46425L20.0984 6.35818L19.9924 6.46425L13.3924 13.0642C12.626 13.8307 11.3334 13.8307 10.567 13.0642L10.5667 13.0639L3.9667 6.50144L3.86064 6.39598L3.75487 6.50175L3.04237 7.21425L2.93631 7.32031L3.04237 7.42638L7.84881 12.2328L3.04237 17.0392L2.93631 17.1453L3.04237 17.2514L3.75487 17.9639L3.86094 18.0699L3.967 17.9639L8.77344 13.1574L9.64237 14.0264C10.2691 14.6531 11.0942 15.0078 11.9609 15.0078C12.8277 15.0078 13.6528 14.6531 14.2795 14.0264L15.1484 13.1574L19.9549 17.9639L20.0609 18.0699L20.167 17.9639L20.8795 17.2514L20.9856 17.1453L20.8795 17.0392L16.0731 12.2328L20.917 7.38888Z" fill="white" stroke="white" stroke-width="0.3"/>
<path d="M4.61406 19.2891H19.4266C20.3719 19.2891 21.1516 18.5094 21.1516 17.5641V6.98906C21.1516 6.04372 20.3719 5.26406 19.4266 5.26406H4.61406C3.66872 5.26406 2.88906 6.04372 2.88906 6.98906V17.5641C2.88906 18.5094 3.66872 19.2891 4.61406 19.2891ZM4.20156 6.95156C4.20156 6.73441 4.3594 6.57656 4.57656 6.57656H19.3891C19.6062 6.57656 19.7641 6.73441 19.7641 6.95156V17.5266C19.7641 17.7437 19.6062 17.9016 19.3891 17.9016H4.57656C4.35941 17.9016 4.20156 17.7437 4.20156 17.5266V6.95156Z" fill="white" stroke="white" stroke-width="0.3"/>
</svg>
