<svg width="24" height="25" viewBox="0 0 24 25" fill="none" xmlns="http://www.w3.org/2000/svg">
<path d="M14.8061 14.3202L14.7139 14.269C13.7319 13.7227 12.8296 13.0442 12.0321 12.2525L12.0316 12.252C11.2399 11.4545 10.5614 10.5522 10.0152 9.57018L9.9703 9.48954L10.0471 9.43836L10.4671 9.15836L10.4782 9.15096L10.4786 9.15175C10.8998 8.94553 11.2298 8.59081 11.4052 8.15586C11.5805 7.72103 11.5889 7.23673 11.4287 6.79611C11.2684 6.36448 11.1369 5.92271 11.035 5.4737M14.8061 14.3202L11.035 5.4737M14.8061 14.3202L14.8524 14.2255L15.0724 13.7755C15.2786 13.3543 15.6333 13.0243 16.0682 12.8489C16.503 12.6736 16.9872 12.6652 17.4277 12.8253C17.8586 12.9884 18.3008 13.12 18.7507 13.2192C18.7924 13.2286 18.8356 13.2392 18.88 13.25C19.0553 13.2929 19.2482 13.34 19.4334 13.3415C20.091 13.4615 20.6872 13.805 21.1208 14.3141C21.556 14.8251 21.8005 15.4713 21.8125 16.1425V19.1416L21.8125 19.142C21.8144 19.5523 21.7293 19.9583 21.5626 20.3333C21.396 20.7081 21.1518 21.0434 20.846 21.3169C20.3138 21.7911 19.6255 22.0526 18.9127 22.0516H18.9125H18.5387C14.3718 21.5357 10.4952 19.647 7.52078 16.6834C4.5449 13.7183 2.64168 9.84628 2.11174 5.67895L2.11175 5.67895L2.1116 5.6779C2.05465 5.26519 2.08728 4.84505 2.20729 4.44609C2.3273 4.04712 2.53186 3.6787 2.80705 3.3659C3.08224 3.0531 3.4216 2.80327 3.80202 2.63341C4.18245 2.46355 4.595 2.37765 5.0116 2.38156V2.38157H5.01254H8.01254V2.38158L8.014 2.38156C8.70487 2.37151 9.37663 2.60847 9.9083 3.04975C10.4394 3.49061 10.7959 4.10645 10.9137 4.78655M14.8061 14.3202L10.9137 4.78655M11.035 5.4737C10.9844 5.25099 10.944 5.01861 10.9137 4.78655M11.035 5.4737C11.035 5.47371 11.035 5.47372 11.035 5.47373L10.9137 4.78655M7.79254 9.43157L7.88324 9.38946C7.83333 9.28195 7.80515 9.16564 7.80031 9.04721C7.79547 8.92878 7.81407 8.81055 7.85505 8.69933C7.89602 8.58811 7.95857 8.48608 8.03909 8.39909C8.1196 8.31211 8.21651 8.24189 8.32424 8.19246L8.32465 8.19227L9.72465 7.54227L9.80893 7.50314L9.77609 7.41622C9.58706 6.91594 9.4347 6.40256 9.32023 5.88016L9.3201 5.87962C9.26067 5.61545 9.21112 5.34794 9.17149 5.07709L9.1717 5.07706L9.17032 5.07059C9.11665 4.82042 8.97745 4.59678 8.77668 4.43817C8.5762 4.2798 8.32686 4.19615 8.07146 4.20157H5.07254L5.07242 4.20157C4.91623 4.20177 4.76188 4.23522 4.61963 4.29971C4.47738 4.36419 4.3505 4.45823 4.24742 4.57557L4.2474 4.57555L4.24606 4.57714C4.14242 4.70017 4.0648 4.84293 4.01789 4.9968C3.97098 5.15067 3.95575 5.31245 3.97313 5.47237L3.97312 5.47237L3.9733 5.47381C4.43843 9.24319 6.14519 12.7505 8.82438 15.4424C11.5036 18.1343 15.0027 19.8577 18.7698 20.3408L18.7701 20.3408C18.9307 20.3609 19.0936 20.3469 19.2484 20.2997C19.4031 20.2525 19.5462 20.1732 19.6682 20.067L19.6685 20.0667C19.7859 19.9636 19.8799 19.8367 19.9444 19.6945C20.0089 19.5522 20.0423 19.3979 20.0425 19.2417L20.0425 19.2409L20.0226 16.1223C20.0279 15.867 19.9442 15.6178 19.7859 15.4174C19.6273 15.2167 19.4037 15.0775 19.1535 15.0238L19.1536 15.0236L19.147 15.0226C18.8762 14.983 18.6087 14.9335 18.3446 14.874C17.8131 14.7534 17.2894 14.6009 16.7762 14.4174L16.6887 14.3861L16.6511 14.4711L16.0315 15.8702C15.9812 15.978 15.9102 16.0747 15.8223 16.1549C15.7343 16.2352 15.6311 16.2973 15.5189 16.3374L15.5188 16.3373L15.5145 16.3391C15.2961 16.4288 15.0512 16.4291 14.8327 16.3399C11.7722 14.9105 9.31208 12.45 7.88315 9.38926L7.79254 9.43157ZM7.79254 9.43157C9.23174 12.5143 11.7098 14.9924 14.7925 16.4316M7.79254 9.43157C7.73708 9.31211 7.70577 9.18288 7.70039 9.05129C7.69501 8.9197 7.71568 8.78834 7.76121 8.66476C7.80674 8.54118 7.87624 8.42781 7.9657 8.33116C8.05516 8.23451 8.16284 8.15649 8.28254 8.10157L9.68254 7.45157C9.4918 6.94675 9.33806 6.42871 9.22254 5.90157C9.16254 5.6349 9.11254 5.3649 9.07254 5.09157C9.02375 4.86414 8.89721 4.66083 8.71469 4.51664C8.53217 4.37245 8.30509 4.29639 8.07254 4.30157L14.7925 16.4316M14.7925 16.4316C15.036 16.5316 15.3091 16.5316 15.5525 16.4316H14.7925Z" fill="white" stroke="white" stroke-width="0.2"/>
</svg>
