<svg width="24" height="24" viewBox="0 0 24 24" fill="none" xmlns="http://www.w3.org/2000/svg">
<path d="M12 12H12.01" stroke="#070707" stroke-width="1.5" stroke-linecap="round" stroke-linejoin="round"/>
<path d="M15.9995 6V4C15.9995 3.46957 15.7888 2.96086 15.4137 2.58579C15.0387 2.21071 14.5299 2 13.9995 2H9.99951C9.46908 2 8.96037 2.21071 8.5853 2.58579C8.21023 2.96086 7.99951 3.46957 7.99951 4V6" stroke="#070707" stroke-width="1.5" stroke-linecap="round" stroke-linejoin="round"/>
<path d="M21.9995 13C19.0323 14.959 15.5551 16.0033 11.9995 16.0033C8.44396 16.0033 4.96672 14.959 1.99951 13" stroke="#070707" stroke-width="1.5" stroke-linecap="round" stroke-linejoin="round"/>
<path d="M19.9995 6H3.99951C2.89494 6 1.99951 6.89543 1.99951 8V18C1.99951 19.1046 2.89494 20 3.99951 20H19.9995C21.1041 20 21.9995 19.1046 21.9995 18V8C21.9995 6.89543 21.1041 6 19.9995 6Z" stroke="#070707" stroke-width="1.5" stroke-linecap="round" stroke-linejoin="round"/>
</svg>
