<svg width="74" height="74" viewBox="0 0 74 74" fill="none" xmlns="http://www.w3.org/2000/svg">
<rect x="0.5" y="0.5" width="73" height="73" rx="7.5" fill="#F8F6F4" stroke="#C8C8C8"/>
<path d="M38.3332 35.6667H44.7332C46.2266 35.6667 46.9734 35.6667 47.5438 35.9573C48.0456 36.213 48.4535 36.6209 48.7092 37.1227C48.9998 37.6931 48.9998 38.4399 48.9998 39.9333V49M38.3332 49V29.2667C38.3332 27.7732 38.3332 27.0265 38.0425 26.456C37.7869 25.9543 37.3789 25.5463 36.8771 25.2906C36.3067 25 35.56 25 34.0665 25H29.2665C27.773 25 27.0263 25 26.4559 25.2906C25.9541 25.5463 25.5461 25.9543 25.2905 26.456C24.9998 27.0265 24.9998 27.7732 24.9998 29.2667V49M50.3332 49H23.6665M29.6665 30.3333H33.6665M29.6665 35.6667H33.6665M29.6665 41H33.6665" stroke="#4F4F4F" stroke-width="2" stroke-linecap="round" stroke-linejoin="round"/>
</svg>
