<svg width="25" height="25" viewBox="0 0 25 25" fill="none" xmlns="http://www.w3.org/2000/svg">
<path d="M10.5278 13.912C10.8961 14.4044 11.366 14.8118 11.9056 15.1066C12.4452 15.4014 13.0419 15.5767 13.6553 15.6206C14.2686 15.6646 14.8842 15.5761 15.4603 15.3612C16.0364 15.1463 16.5596 14.81 16.9943 14.3751L19.5671 11.8022C20.3482 10.9935 20.7805 9.91031 20.7707 8.78599C20.7609 7.66166 20.3099 6.58616 19.5149 5.79111C18.7198 4.99606 17.6443 4.54509 16.52 4.53532C15.3957 4.52555 14.3125 4.95776 13.5038 5.73887L12.0287 7.2054" stroke="#4F4F4F" stroke-width="2" stroke-linecap="round" stroke-linejoin="round"/>
<path d="M13.9583 12.1981C13.59 11.7057 13.1201 11.2983 12.5805 11.0035C12.0409 10.7087 11.4442 10.5334 10.8309 10.4895C10.2176 10.4455 9.602 10.534 9.02589 10.7489C8.44978 10.9639 7.92662 11.3001 7.49191 11.735L4.91905 14.3079C4.13794 15.1166 3.70572 16.1998 3.71549 17.3241C3.72526 18.4484 4.17624 19.524 4.97129 20.319C5.76633 21.114 6.84184 21.565 7.96616 21.5748C9.09049 21.5846 10.1737 21.1523 10.9824 20.3712L12.4489 18.9047" stroke="#4F4F4F" stroke-width="2" stroke-linecap="round" stroke-linejoin="round"/>
</svg>
