<svg width="25" height="25" viewBox="0 0 25 25" fill="none" xmlns="http://www.w3.org/2000/svg">
<path d="M20.1567 10.9688C20.1567 15.9618 14.6177 21.1617 12.7577 22.7677C12.5845 22.898 12.3735 22.9685 12.1567 22.9685C11.9399 22.9685 11.729 22.898 11.5557 22.7677C9.69574 21.1617 4.15674 15.9618 4.15674 10.9688C4.15674 8.84702 4.99959 6.81219 6.49988 5.3119C8.00018 3.8116 10.035 2.96875 12.1567 2.96875C14.2785 2.96875 16.3133 3.8116 17.8136 5.3119C19.3139 6.81219 20.1567 8.84702 20.1567 10.9688Z" stroke="#4F4F4F" stroke-width="2" stroke-linecap="round" stroke-linejoin="round"/>
<path d="M12.1567 13.9688C13.8136 13.9688 15.1567 12.6256 15.1567 10.9688C15.1567 9.3119 13.8136 7.96875 12.1567 7.96875C10.4999 7.96875 9.15674 9.3119 9.15674 10.9688C9.15674 12.6256 10.4999 13.9688 12.1567 13.9688Z" stroke="#4F4F4F" stroke-width="2" stroke-linecap="round" stroke-linejoin="round"/>
</svg>
