<svg width="33" height="32" viewBox="0 0 33 32" fill="none" xmlns="http://www.w3.org/2000/svg">
<circle cx="16.6738" cy="16" r="16" fill="#070707"/>
<path d="M20.8633 12.4933C22.2557 12.4933 23.591 13.0464 24.5756 14.031C25.5602 15.0155 26.1133 16.3509 26.1133 17.7433V23.8683H22.6133V17.7433C22.6133 17.2792 22.4289 16.834 22.1007 16.5058C21.7725 16.1777 21.3274 15.9933 20.8633 15.9933C20.3992 15.9933 19.954 16.1777 19.6258 16.5058C19.2977 16.834 19.1133 17.2792 19.1133 17.7433V23.8683H15.6133V17.7433C15.6133 16.3509 16.1664 15.0155 17.151 14.031C18.1355 13.0464 19.4709 12.4933 20.8633 12.4933Z" fill="white"/>
<path d="M20.8633 12.4933C22.2557 12.4933 23.591 13.0464 24.5756 14.031C25.5602 15.0155 26.1133 16.3509 26.1133 17.7433V23.8683H22.6133V17.7433C22.6133 17.2792 22.4289 16.834 22.1007 16.5058C21.7725 16.1777 21.3274 15.9933 20.8633 15.9933C20.3992 15.9933 19.954 16.1777 19.6258 16.5058C19.2977 16.834 19.1133 17.2792 19.1133 17.7433V23.8683H15.6133V17.7433C15.6133 16.3509 16.1664 15.0155 17.151 14.031C18.1355 13.0464 19.4709 12.4933 20.8633 12.4933Z" stroke="#070707"/>
<path d="M12.1133 13.3683H8.61328V23.8683H12.1133V13.3683Z" fill="white"/>
<path d="M12.1133 13.3683H8.61328V23.8683H12.1133V13.3683Z" stroke="#070707"/>
<path d="M10.3633 10.7433C11.3298 10.7433 12.1133 9.95978 12.1133 8.99329C12.1133 8.02679 11.3298 7.24329 10.3633 7.24329C9.39678 7.24329 8.61328 8.02679 8.61328 8.99329C8.61328 9.95978 9.39678 10.7433 10.3633 10.7433Z" fill="white"/>
<path d="M10.3633 10.7433C11.3298 10.7433 12.1133 9.95978 12.1133 8.99329C12.1133 8.02679 11.3298 7.24329 10.3633 7.24329C9.39678 7.24329 8.61328 8.02679 8.61328 8.99329C8.61328 9.95978 9.39678 10.7433 10.3633 10.7433Z" stroke="#070707"/>
<circle cx="16.6738" cy="16" r="16" fill="#070707"/>
<path d="M20.8633 12.4941C22.2557 12.4941 23.591 13.0473 24.5756 14.0318C25.5602 15.0164 26.1133 16.3518 26.1133 17.7441V23.8691H22.6133V17.7441C22.6133 17.28 22.4289 16.8349 22.1007 16.5067C21.7725 16.1785 21.3274 15.9941 20.8633 15.9941C20.3992 15.9941 19.954 16.1785 19.6258 16.5067C19.2977 16.8349 19.1133 17.28 19.1133 17.7441V23.8691H15.6133V17.7441C15.6133 16.3518 16.1664 15.0164 17.151 14.0318C18.1355 13.0473 19.4709 12.4941 20.8633 12.4941Z" fill="white"/>
<path d="M20.8633 12.4941C22.2557 12.4941 23.591 13.0473 24.5756 14.0318C25.5602 15.0164 26.1133 16.3518 26.1133 17.7441V23.8691H22.6133V17.7441C22.6133 17.28 22.4289 16.8349 22.1007 16.5067C21.7725 16.1785 21.3274 15.9941 20.8633 15.9941C20.3992 15.9941 19.954 16.1785 19.6258 16.5067C19.2977 16.8349 19.1133 17.28 19.1133 17.7441V23.8691H15.6133V17.7441C15.6133 16.3518 16.1664 15.0164 17.151 14.0318C18.1355 13.0473 19.4709 12.4941 20.8633 12.4941Z" stroke="#070707"/>
<path d="M12.1133 13.3691H8.61328V23.8691H12.1133V13.3691Z" fill="white"/>
<path d="M12.1133 13.3691H8.61328V23.8691H12.1133V13.3691Z" stroke="#070707"/>
<path d="M10.3633 10.7441C11.3298 10.7441 12.1133 9.96064 12.1133 8.99414C12.1133 8.02764 11.3298 7.24414 10.3633 7.24414C9.39678 7.24414 8.61328 8.02764 8.61328 8.99414C8.61328 9.96064 9.39678 10.7441 10.3633 10.7441Z" fill="white"/>
<path d="M10.3633 10.7441C11.3298 10.7441 12.1133 9.96064 12.1133 8.99414C12.1133 8.02764 11.3298 7.24414 10.3633 7.24414C9.39678 7.24414 8.61328 8.02764 8.61328 8.99414C8.61328 9.96064 9.39678 10.7441 10.3633 10.7441Z" stroke="#070707"/>
</svg>
