<svg width="33" height="33" viewBox="0 0 33 33" fill="none" xmlns="http://www.w3.org/2000/svg">
<g clip-path="url(#clip0_515_19162)">
<path d="M26.7882 10.6949C26.6788 11.1589 26.0185 11.1589 25.9091 10.6949C25.6575 9.62577 25.137 8.6493 24.4033 7.8699C23.6695 7.0905 22.75 6.53747 21.7431 6.26993C21.2645 6.1429 21.2645 5.46367 21.7431 5.33664C22.75 5.0691 23.6695 4.51607 24.4033 3.73667C25.137 2.95727 25.6575 1.9808 25.9091 0.911644C26.0185 0.447687 26.6788 0.447687 26.7882 0.911644C27.0399 1.98102 27.5606 2.95764 28.2947 3.73706C29.0289 4.51649 29.9487 5.06939 30.9559 5.33664C31.4344 5.46376 31.4344 6.14281 30.9559 6.26993C29.9487 6.53718 29.0289 7.09008 28.2947 7.8695C27.5606 8.64893 27.0399 9.62555 26.7882 10.6949Z" fill="#6F20D0"/>
<path d="M24.4718 30.9155L24.2803 31.526C24.1337 31.9931 23.4726 31.9931 23.3261 31.526L23.1346 30.9155C22.9471 30.3184 22.6313 29.7759 22.2122 29.3309C21.7931 28.8859 21.2821 28.5506 20.7198 28.3516L20.0454 28.1131C19.601 27.956 19.601 27.3275 20.0454 27.1704L20.7198 26.9319C21.2821 26.7329 21.7931 26.3976 22.2122 25.9526C22.6313 25.5076 22.9471 24.9651 23.1346 24.368L23.3261 23.7575C23.4726 23.2904 24.1337 23.2904 24.2803 23.7575L24.4718 24.368C24.6592 24.9651 24.975 25.5076 25.3942 25.9526C25.8133 26.3976 26.3243 26.7329 26.8866 26.9319L27.561 27.1704C28.0054 27.3275 28.0054 27.956 27.561 28.1131L26.8866 28.3516C26.3243 28.5506 25.8133 28.8859 25.3942 29.3309C24.975 29.7759 24.6592 30.3184 24.4718 30.9155Z" fill="#6F20D0"/>
<path d="M12.7123 26.0469L14.0372 21.4089L14.0388 21.4073C14.3812 20.2093 15.0233 19.1183 15.9043 18.2373C16.7853 17.3562 17.8764 16.7142 19.0744 16.3718L23.7123 15.0469L19.0727 13.7204C17.8747 13.3779 16.7837 12.7359 15.9027 11.8549C15.0216 10.9738 14.3796 9.88281 14.0372 8.6848L12.7123 4.04688L11.3858 8.68643C11.0433 9.88444 10.4013 10.9754 9.52026 11.8565C8.63921 12.7375 7.54821 13.3796 6.35021 13.722L1.71228 15.0469L6.35184 16.3734C7.54984 16.7158 8.64084 17.3579 9.52189 18.2389C10.4029 19.1199 11.045 20.2109 11.3874 21.4089L12.7123 26.0469Z" stroke="#6F20D0" stroke-width="2.5" stroke-linecap="round" stroke-linejoin="round"/>
</g>
<defs>
<clipPath id="clip0_515_19162">
<rect width="32" height="32" fill="white" transform="translate(0.156738 0.046875)"/>
</clipPath>
</defs>
</svg>
