<svg width="24" height="25" viewBox="0 0 24 25" fill="none" xmlns="http://www.w3.org/2000/svg">
<path d="M11.9902 13.5C12.5425 13.5 12.9902 13.0523 12.9902 12.5C12.9902 11.9477 12.5425 11.5 11.9902 11.5C11.4379 11.5 10.9902 11.9477 10.9902 12.5C10.9902 13.0523 11.4379 13.5 11.9902 13.5Z" stroke="#4F4F4F" stroke-width="2" stroke-linecap="round" stroke-linejoin="round"/>
<path d="M11.9902 6.5C12.5425 6.5 12.9902 6.05228 12.9902 5.5C12.9902 4.94772 12.5425 4.5 11.9902 4.5C11.4379 4.5 10.9902 4.94772 10.9902 5.5C10.9902 6.05228 11.4379 6.5 11.9902 6.5Z" stroke="#4F4F4F" stroke-width="2" stroke-linecap="round" stroke-linejoin="round"/>
<path d="M11.9902 20.5C12.5425 20.5 12.9902 20.0523 12.9902 19.5C12.9902 18.9477 12.5425 18.5 11.9902 18.5C11.4379 18.5 10.9902 18.9477 10.9902 19.5C10.9902 20.0523 11.4379 20.5 11.9902 20.5Z" stroke="#4F4F4F" stroke-width="2" stroke-linecap="round" stroke-linejoin="round"/>
</svg>
