<svg width="24" height="25" viewBox="0 0 24 25" fill="none" xmlns="http://www.w3.org/2000/svg">
<path d="M15.1904 19.4016V17.8016C15.1904 16.9529 14.8532 16.139 14.2531 15.5388C13.653 14.9387 12.839 14.6016 11.9903 14.6016H7.19027C6.34157 14.6016 5.52763 14.9387 4.9275 15.5388C4.32738 16.139 3.99023 16.9529 3.99023 17.8016V19.4016" stroke="#4F4F4F" stroke-width="2" stroke-linecap="round" stroke-linejoin="round"/>
<path d="M9.59066 11.4001C11.358 11.4001 12.7907 9.96736 12.7907 8.20003C12.7907 6.4327 11.358 5 9.59066 5C7.82333 5 6.39062 6.4327 6.39062 8.20003C6.39062 9.96736 7.82333 11.4001 9.59066 11.4001Z" stroke="#4F4F4F" stroke-width="2" stroke-linecap="round" stroke-linejoin="round"/>
<path d="M19.9899 19.3992V17.7992C19.9893 17.0901 19.7534 16.4014 19.319 15.841C18.8846 15.2806 18.2764 14.8804 17.5898 14.7031" stroke="#4F4F4F" stroke-width="2" stroke-linecap="round" stroke-linejoin="round"/>
<path d="M15.1904 5.10742C15.8788 5.28366 16.4889 5.68399 16.9246 6.24528C17.3602 6.80658 17.5967 7.49691 17.5967 8.20746C17.5967 8.918 17.3602 9.60833 16.9246 10.1696C16.4889 10.7309 15.8788 11.1312 15.1904 11.3075" stroke="#4F4F4F" stroke-width="2" stroke-linecap="round" stroke-linejoin="round"/>
</svg>
