<svg width="20" height="20" viewBox="0 0 20 20" fill="none" xmlns="http://www.w3.org/2000/svg">
<path d="M10 10H10.0102" stroke="#4F4F4F" stroke-width="1.5" stroke-linecap="round" stroke-linejoin="round"/>
<path d="M13.3332 5.0013V3.33464C13.3332 2.89261 13.1576 2.46868 12.845 2.15612C12.5325 1.84356 12.1085 1.66797 11.6665 1.66797H8.33317C7.89114 1.66797 7.46722 1.84356 7.15466 2.15612C6.8421 2.46868 6.6665 2.89261 6.6665 3.33464V5.0013" stroke="#4F4F4F" stroke-width="1.5" stroke-linecap="round" stroke-linejoin="round"/>
<path d="M18.3332 10.832C15.8605 12.4645 12.9628 13.3348 9.99984 13.3348C7.03688 13.3348 4.13918 12.4645 1.6665 10.832" stroke="#4F4F4F" stroke-width="1.5" stroke-linecap="round" stroke-linejoin="round"/>
<path d="M16.6665 5H3.33317C2.4127 5 1.6665 5.74619 1.6665 6.66667V15C1.6665 15.9205 2.4127 16.6667 3.33317 16.6667H16.6665C17.587 16.6667 18.3332 15.9205 18.3332 15V6.66667C18.3332 5.74619 17.587 5 16.6665 5Z" stroke="#4F4F4F" stroke-width="1.5" stroke-linecap="round" stroke-linejoin="round"/>
</svg>
