<svg width="24" height="24" viewBox="0 0 24 24" fill="none" xmlns="http://www.w3.org/2000/svg">
<path d="M11.9995 22C17.5224 22 21.9995 17.5228 21.9995 12C21.9995 6.47715 17.5224 2 11.9995 2C6.47666 2 1.99951 6.47715 1.99951 12C1.99951 17.5228 6.47666 22 11.9995 22Z" stroke="#070707" stroke-width="1.5" stroke-linecap="round" stroke-linejoin="round"/>
<path d="M12 13C13.6569 13 15 11.6569 15 10C15 8.34315 13.6569 7 12 7C10.3431 7 9 8.34315 9 10C9 11.6569 10.3431 13 12 13Z" stroke="#070707" stroke-width="1.5" stroke-linecap="round" stroke-linejoin="round"/>
<path d="M6.99951 20.662V19C6.99951 18.4696 7.21023 17.9609 7.5853 17.5858C7.96037 17.2107 8.46908 17 8.99951 17H14.9995C15.5299 17 16.0387 17.2107 16.4137 17.5858C16.7888 17.9609 16.9995 18.4696 16.9995 19V20.662" stroke="#070707" stroke-width="1.5" stroke-linecap="round" stroke-linejoin="round"/>
</svg>
