<svg width="24" height="24" viewBox="0 0 24 24" fill="none" xmlns="http://www.w3.org/2000/svg">
<path d="M2 5.20707C2 4.56733 2.22523 4.03955 2.67568 3.62374C3.12612 3.20791 3.71172 3 4.43243 3C5.14029 3 5.71299 3.2047 6.15058 3.61414C6.60102 4.03636 6.82625 4.58652 6.82625 5.26465C6.82625 5.87879 6.60747 6.39056 6.16988 6.8C5.71944 7.22222 5.12741 7.43333 4.39382 7.43333H4.37452C3.66666 7.43333 3.09396 7.22222 2.65637 6.8C2.21878 6.37778 2 5.84679 2 5.20707ZM2.25097 22V9.1798H6.53668V22H2.25097ZM8.9112 22H13.1969V14.8414C13.1969 14.3936 13.2484 14.0481 13.3514 13.805C13.5315 13.37 13.805 13.0022 14.1718 12.7015C14.5386 12.4008 14.9987 12.2505 15.5521 12.2505C16.9936 12.2505 17.7143 13.2165 17.7143 15.1485V22H22V14.6495C22 12.7559 21.5496 11.3197 20.6486 10.3409C19.7477 9.36212 18.5573 8.87273 17.0772 8.87273C15.417 8.87273 14.1236 9.58283 13.1969 11.003V11.0414H13.1776L13.1969 11.003V9.1798H8.9112C8.93693 9.58922 8.94981 10.8623 8.94981 12.999C8.94981 15.1357 8.93693 18.136 8.9112 22Z" fill="#070707"/>
</svg>
