<svg width="20" height="20" viewBox="0 0 20 20" fill="none" xmlns="http://www.w3.org/2000/svg">
<path d="M17.9165 14.9987L12.3808 9.9987M7.61889 9.9987L2.0832 14.9987M1.6665 5.83203L8.4706 10.5949C9.02158 10.9806 9.29707 11.1734 9.59672 11.2481C9.86142 11.3141 10.1383 11.3141 10.403 11.2481C10.7026 11.1734 10.9781 10.9806 11.5291 10.5949L18.3332 5.83203M5.6665 16.6654H14.3332C15.7333 16.6654 16.4334 16.6654 16.9681 16.3929C17.4386 16.1532 17.821 15.7707 18.0607 15.3003C18.3332 14.7656 18.3332 14.0655 18.3332 12.6654V7.33203C18.3332 5.9319 18.3332 5.23183 18.0607 4.69705C17.821 4.22665 17.4386 3.8442 16.9681 3.60451C16.4334 3.33203 15.7333 3.33203 14.3332 3.33203H5.6665C4.26637 3.33203 3.56631 3.33203 3.03153 3.60451C2.56112 3.8442 2.17867 4.22665 1.93899 4.69705C1.6665 5.23183 1.6665 5.9319 1.6665 7.33203V12.6654C1.6665 14.0655 1.6665 14.7656 1.93899 15.3003C2.17867 15.7707 2.56112 16.1532 3.03153 16.3929C3.56631 16.6654 4.26637 16.6654 5.6665 16.6654Z" stroke="#4F4F4F" stroke-width="1.5" stroke-linecap="round" stroke-linejoin="round"/>
</svg>
