<svg width="24" height="24" viewBox="0 0 24 24" fill="none" xmlns="http://www.w3.org/2000/svg">
<path d="M18.7875 22.6366H5.25C5.05109 22.6366 4.86032 22.5575 4.71967 22.4169C4.57902 22.2762 4.5 22.0855 4.5 21.8866V7.26156C4.5 7.06265 4.57902 6.87188 4.71967 6.73123C4.86032 6.59058 5.05109 6.51156 5.25 6.51156H9.435L9.5025 2.10156C9.5025 1.90265 9.58152 1.71188 9.72217 1.57123C9.86282 1.43058 10.0536 1.35156 10.2525 1.35156H18.7875C18.9864 1.35156 19.1772 1.43058 19.3178 1.57123C19.4585 1.71188 19.5375 1.90265 19.5375 2.10156V21.8866C19.5375 22.0855 19.4585 22.2762 19.3178 22.4169C19.1772 22.5575 18.9864 22.6366 18.7875 22.6366ZM6 21.1366H18.075V2.86656H10.95L10.8825 7.27656C10.8825 7.47547 10.8035 7.66624 10.6628 7.80689C10.5222 7.94754 10.3314 8.02656 10.1325 8.02656H6V21.1366Z" fill="#070707"/>
<path d="M10.1327 8.01083H5.25025C5.10197 8.01638 4.95537 7.97783 4.82901 7.90004C4.70264 7.82226 4.6022 7.70874 4.54037 7.57385C4.47854 7.43895 4.45812 7.28875 4.48169 7.14225C4.50525 6.99575 4.57174 6.85953 4.67275 6.75083L9.67525 1.59083C9.7805 1.48399 9.91537 1.41116 10.0624 1.38175C10.2095 1.35234 10.362 1.36769 10.5002 1.42583C10.6396 1.48305 10.7585 1.58091 10.8414 1.70666C10.9243 1.8324 10.9675 1.98021 10.9652 2.13083L10.8827 7.27583C10.8788 7.47213 10.7981 7.65906 10.6578 7.79649C10.5176 7.93391 10.3291 8.01087 10.1327 8.01083ZM6.99025 6.51083H9.39775L9.43525 3.99083L6.99025 6.51083ZM16.0352 18.4958H9.10525C8.90634 18.4958 8.71557 18.4168 8.57492 18.2762C8.43426 18.1355 8.35525 17.9447 8.35525 17.7458C8.35525 17.5469 8.43426 17.3562 8.57492 17.2155C8.71557 17.0748 8.90634 16.9958 9.10525 16.9958H16.0352C16.2342 16.9958 16.4249 17.0748 16.5656 17.2155C16.7062 17.3562 16.7852 17.5469 16.7852 17.7458C16.7852 17.9447 16.7062 18.1355 16.5656 18.2762C16.4249 18.4168 16.2342 18.4958 16.0352 18.4958ZM16.0352 14.7458H9.10525C8.90634 14.7458 8.71557 14.6668 8.57492 14.5262C8.43426 14.3855 8.35525 14.1947 8.35525 13.9958C8.35525 13.7969 8.43426 13.6062 8.57492 13.4655C8.71557 13.3248 8.90634 13.2458 9.10525 13.2458H16.0352C16.2342 13.2458 16.4249 13.3248 16.5656 13.4655C16.7062 13.6062 16.7852 13.7969 16.7852 13.9958C16.7852 14.1947 16.7062 14.3855 16.5656 14.5262C16.4249 14.6668 16.2342 14.7458 16.0352 14.7458ZM16.0352 10.9958H9.10525C8.90634 10.9958 8.71557 10.9168 8.57492 10.7762C8.43426 10.6355 8.35525 10.4447 8.35525 10.2458C8.35525 10.0469 8.43426 9.85615 8.57492 9.7155C8.71557 9.57485 8.90634 9.49583 9.10525 9.49583H16.0352C16.2342 9.49583 16.4249 9.57485 16.5656 9.7155C16.7062 9.85615 16.7852 10.0469 16.7852 10.2458C16.7852 10.4447 16.7062 10.6355 16.5656 10.7762C16.4249 10.9168 16.2342 10.9958 16.0352 10.9958Z" fill="#070707"/>
</svg>
