<svg width="25" height="25" viewBox="0 0 25 25" fill="none" xmlns="http://www.w3.org/2000/svg">
<path d="M12.1567 22.9688C17.6796 22.9688 22.1567 18.4916 22.1567 12.9688C22.1567 7.4459 17.6796 2.96875 12.1567 2.96875C6.63389 2.96875 2.15674 7.4459 2.15674 12.9688C2.15674 18.4916 6.63389 22.9688 12.1567 22.9688Z" stroke="#4F4F4F" stroke-width="2" stroke-linecap="round" stroke-linejoin="round"/>
<path d="M15.6979 10.0119L15.34 11.275H8.636L8.99395 10.0119H15.6979ZM12.4354 17.9688L8.77407 13.525L8.76384 12.5278H10.5792C11.0326 12.5278 11.4161 12.458 11.7297 12.3182C12.0434 12.1784 12.282 11.9756 12.4457 11.7097C12.6093 11.4403 12.6911 11.1131 12.6911 10.7278C12.6911 10.1551 12.5207 9.7 12.1798 9.3625C11.8388 9.025 11.3053 8.85625 10.5792 8.85625H8.636L9.0093 7.49602H10.5792C11.4246 7.49602 12.1218 7.63068 12.6707 7.9C13.2195 8.16932 13.6286 8.54261 13.8979 9.01989C14.1673 9.49716 14.3019 10.0477 14.3019 10.6716C14.3019 11.2273 14.1911 11.7301 13.9695 12.1801C13.7479 12.6301 13.3951 12.9966 12.911 13.2795C12.4269 13.5625 11.7911 13.7278 11.0036 13.7756L10.9576 13.7858L14.3019 17.8818V17.9688H12.4354ZM15.703 7.49602L15.34 8.76932L9.98089 8.73864L10.344 7.49602H15.703Z" fill="#4F4F4F"/>
</svg>
