<svg width="137" height="44" viewBox="0 0 137 44" fill="none" xmlns="http://www.w3.org/2000/svg">
<g clip-path="url(#clip0_2731_21747)">
<path d="M121.885 19.4116C123.673 19.6265 125.445 19.9278 127.201 20.3096C127.676 20.4137 128.428 20.2629 128.75 19.8781C129.106 19.4562 128.565 19.2205 128.222 19.144C126.466 18.7564 124.688 18.4603 122.906 18.246C122.408 18.1861 121.7 18.2657 121.357 18.6774C121.014 19.0892 121.521 19.3677 121.885 19.4116Z" fill="#070707"/>
<path d="M111.015 19.256C111.282 19.2293 111.554 19.2091 111.828 19.1831C111.911 19.1754 111.911 19.1754 111.828 19.1831C111.911 19.1754 111.993 19.1736 112.076 19.1659C112.201 19.1573 112.325 19.1488 112.449 19.1402C112.969 19.1086 113.489 19.0829 114.014 19.0636C115.075 19.0265 116.143 19.0255 117.202 19.0586C117.618 19.0675 118.405 18.915 118.566 18.4521C118.731 17.9601 117.95 17.8662 117.658 17.8546C115.388 17.7934 113.111 17.8844 110.849 18.0948C110.511 18.1247 109.712 18.3699 109.78 18.8368C109.847 19.3038 110.701 19.2771 111.015 19.2502L111.015 19.256Z" fill="#070707"/>
<path d="M100.799 21.2714C101.756 20.9805 102.721 20.7142 103.695 20.4725C104.173 20.3535 104.65 20.2461 105.132 20.1394C104.897 20.1934 105.204 20.1245 105.259 20.1134C105.403 20.0837 105.542 20.0533 105.685 20.0294C105.938 19.9832 106.185 19.9306 106.437 19.8844C106.773 19.8248 107.577 19.6274 107.506 19.1424C107.435 18.6574 106.582 18.6725 106.27 18.7291C104.164 19.1111 102.078 19.6192 100.03 20.2436C99.738 20.332 99.0303 20.6528 99.3264 21.0708C99.6224 21.4888 100.421 21.3848 100.805 21.2721L100.799 21.2714Z" fill="#070707"/>
<path d="M90.7537 25.2407C92.6019 24.3688 94.4742 23.5409 96.383 22.7998C96.7092 22.6743 97.1279 22.2187 96.685 21.9478C96.2088 21.6611 95.5608 21.7773 95.0744 21.9659C93.1656 22.7071 91.2992 23.5356 89.4452 24.4069C89.1342 24.5519 88.6836 24.9801 89.1432 25.2589C89.6027 25.5377 90.2934 25.456 90.7537 25.2407Z" fill="#070707"/>
<path d="M82.2091 29.44C83.7614 28.6855 85.2992 27.9056 86.8471 27.1387C87.0159 27.0531 87.2611 26.9179 87.3267 26.714C87.3823 26.5442 87.297 26.3751 87.1492 26.2867C86.7063 26.0158 85.988 26.0824 85.5386 26.3049C83.9907 27.0717 82.4471 27.8509 80.9005 28.6062C80.7318 28.6918 80.4859 28.8328 80.421 29.0309C80.3653 29.2007 80.4507 29.3698 80.5985 29.4582C81.0472 29.7298 81.7539 29.6618 82.2091 29.44Z" fill="#070707"/>
<path d="M71.793 33.7197C73.8281 33.0997 75.8207 32.3451 77.7774 31.4979C78.0934 31.3594 78.5281 30.9176 78.0794 30.6459C77.6308 30.3743 76.9393 30.4618 76.4689 30.6641C75.5526 31.0598 74.6267 31.4368 73.6921 31.7891C73.6308 31.8112 73.563 31.8383 73.4958 31.8596C73.3854 31.8993 73.3666 31.9088 73.4345 31.8817C73.5023 31.8545 73.4836 31.8641 73.3731 31.9037C73.306 31.9251 73.2439 31.9529 73.1768 31.9742C72.9502 32.0529 72.7228 32.1373 72.4911 32.2095C72.0017 32.3742 71.5072 32.5324 71.0134 32.6848C70.721 32.7731 70.0133 33.094 70.3094 33.5119C70.6054 33.9299 71.4038 33.8318 71.7879 33.7132L71.793 33.7197Z" fill="#070707"/>
<path d="M59.648 35.029C62.0634 35.3959 64.5396 35.3054 66.9369 34.8465C67.2735 34.7811 68.0772 34.5895 68.0064 34.1045C67.9356 33.6195 67.0826 33.6346 66.7706 33.6912C64.6738 34.092 62.7672 34.1805 60.6686 33.8634C60.1789 33.7869 59.4557 33.8941 59.1199 34.2949C58.7841 34.6957 59.2906 34.9743 59.648 35.029Z" fill="#070707"/>
<path d="M48.9561 29.8147C50.8008 31.4131 52.8301 32.7453 55.0725 33.7209C55.5469 33.925 56.2923 33.7793 56.7031 33.4875C57.1138 33.1957 57.014 32.8543 56.5845 32.6673C54.4927 31.757 52.5856 30.4335 50.8629 28.9439C50.3099 28.4656 48.1368 29.1103 48.9561 29.8147Z" fill="#070707"/>
<path d="M39.8931 19.0475C41.5076 21.3888 43.1732 23.6951 45.0327 25.8541C45.3626 26.235 46.0781 26.1916 46.5112 26.0554C46.7617 25.9738 47.5553 25.6221 47.2153 25.2282C45.3551 23.0751 43.6895 20.7688 42.0757 18.4217C41.6362 17.7806 39.3984 18.3292 39.8931 19.0475Z" fill="#070707"/>
<path d="M33.2361 10.1577C35.0393 11.8569 36.5748 13.8299 37.801 15.9833C37.8979 16.1538 38.2177 16.2275 38.3791 16.2528C38.6612 16.2985 39.0052 16.2693 39.2737 16.1839C39.6029 16.0823 40.2298 15.7988 39.9778 15.3567C38.7458 13.2026 37.2161 11.2303 35.4129 9.5311C35.039 9.17436 34.4101 9.1811 33.9344 9.3298C33.7026 9.40194 33.4443 9.5003 33.2803 9.69236C33.184 9.81019 33.0873 10.028 33.2245 10.1563L33.2361 10.1577Z" fill="#070707"/>
<path d="M23.3362 5.42661C23.2437 5.41548 23.5568 5.44725 23.6031 5.45281C23.7478 5.4702 23.8866 5.4869 24.0313 5.5043C24.2743 5.53352 24.5159 5.57433 24.7576 5.61515C25.2459 5.70328 25.6968 5.81043 26.1839 5.95725C27.1749 6.25876 28.1309 6.65608 29.0468 7.1427C29.5265 7.40038 30.1726 7.34864 30.6574 7.12456C30.9495 6.9891 31.4442 6.53677 30.9594 6.27259C28.7261 5.0746 26.3208 4.37949 23.7914 4.22832C23.3778 4.20212 22.587 4.38353 22.4271 4.83491C22.2558 5.332 23.0441 5.41502 23.3355 5.43241L23.3362 5.42661Z" fill="#070707"/>
<path d="M14.3897 8.33853C14.8185 8.04301 15.2524 7.75399 15.6951 7.48955C15.8155 7.41578 15.9417 7.34271 16.0614 7.27475C16.1119 7.24552 16.1753 7.20609 16.0866 7.26013C16.1429 7.2316 16.194 7.19658 16.2503 7.16804C16.4832 7.03722 16.7205 6.91868 16.9636 6.80084C17.4311 6.57468 17.9022 6.3666 18.3886 6.17801C18.481 6.14206 18.4875 6.13695 18.3886 6.17801C18.45 6.15598 18.5055 6.13324 18.5662 6.117C18.6824 6.07803 18.8051 6.03396 18.9271 5.99568C19.1956 5.91032 19.4693 5.83145 19.748 5.75907C20.0505 5.68368 20.743 5.34338 20.452 4.93191C20.161 4.52043 19.3671 4.63086 18.9735 4.7306C16.6954 5.32145 14.5735 6.41934 12.6449 7.76402C12.5102 7.85959 12.3367 8.03287 12.3672 8.21889C12.3977 8.40492 12.6057 8.52994 12.7642 8.57841C13.2789 8.7403 13.9523 8.65655 14.3948 8.34503L14.3897 8.33853Z" fill="#070707"/>
<path d="M4.19772 16.5849C6.51429 15.0398 8.55674 13.1382 10.6538 11.3196C10.7848 11.206 10.9606 11.0624 10.9315 10.8647C10.9069 10.6794 10.693 10.5537 10.5345 10.5052C10.0705 10.3612 9.29715 10.3976 8.90396 10.7386C6.80622 12.563 4.76446 14.4588 2.4479 16.0039C2.06446 16.2637 2.11981 16.6821 2.56647 16.8241C3.08696 16.9867 3.74367 16.895 4.19703 16.5907L4.19772 16.5849Z" fill="#070707"/>
<path d="M122.471 15.7219C124.704 16.3846 126.915 17.1328 129.092 17.9652C130.046 18.3329 131.063 18.6611 131.967 19.1521C132.638 19.5211 133.261 20.0077 133.19 20.8404L133.729 20.2169C130.567 21.4192 127.211 22.1393 123.84 22.3458C123.415 22.3711 122.575 22.4702 122.42 22.981C122.264 23.4917 123.036 23.6139 123.366 23.6007C127.411 23.4046 131.357 22.5614 135.136 21.1097C135.419 21.0025 135.649 20.7949 135.675 20.4862C135.838 18.4468 132.775 17.6492 131.357 17.0963C128.968 16.1678 126.543 15.341 124.084 14.6099C123.539 14.4504 122.822 14.5111 122.357 14.8612C121.971 15.1442 121.978 15.5744 122.481 15.7291L122.471 15.7219Z" fill="#070707"/>
</g>
<defs>
<clipPath id="clip0_2731_21747">
<rect width="133" height="28" fill="white" transform="translate(4.14844 0.160156) rotate(6.8561)"/>
</clipPath>
</defs>
</svg>
