<svg width="86" height="73" viewBox="0 0 86 73" fill="none" xmlns="http://www.w3.org/2000/svg">
<g clip-path="url(#clip0_2731_21777)">
<path d="M70.422 33.2229C71.9593 34.7265 73.487 36.2328 75.0972 37.6643C75.4056 37.9348 76.0091 38.7431 75.6108 39.1492C75.2126 39.5553 74.3954 38.9256 74.1116 38.6689C72.5075 37.2409 70.9702 35.7373 69.4364 34.2276C69.1445 33.9421 68.5115 33.1576 68.9228 32.7427C69.3341 32.3278 70.1451 32.954 70.422 33.2229Z" fill="#070707"/>
<path d="M61.851 25.6822C63.5752 26.9112 65.2008 28.2867 66.7638 29.7159C67.0687 29.9925 67.6756 30.7947 67.2774 31.2008C66.8792 31.6069 66.0619 30.9772 65.7782 30.7205C65.41 30.3841 65.0385 30.0537 64.6669 29.7234C64.5791 29.6497 64.4947 29.5699 64.4069 29.4962C64.1135 29.2422 64.637 29.6904 64.3401 29.4425C64.1496 29.2787 63.9555 29.121 63.7676 28.9667C63.0099 28.3463 62.2383 27.7504 61.4372 27.1783C61.023 26.8806 60.3635 26.1862 60.5397 25.6147C60.7159 25.0432 61.5615 25.4788 61.851 25.6822Z" fill="#070707"/>
<path d="M45.9417 21.5115C49.0054 20.9492 52.1483 21.1506 55.111 22.1314C55.7255 22.3318 56.3309 22.9069 56.5341 23.5222C56.7096 24.0573 56.3923 24.4201 55.8339 24.2351C53.1845 23.3579 50.3622 23.1754 47.617 23.6744C47.0124 23.7867 46.3724 23.2729 46.0323 22.8148C45.8578 22.5793 45.3153 21.6195 45.9356 21.508L45.9417 21.5115Z" fill="#070707"/>
<path d="M35.4314 30.3166C36.6874 28.1713 38.2037 26.1806 40.0813 24.5387C40.5225 24.1567 41.2745 24.7012 41.5805 25.0189C41.8329 25.274 42.5353 26.1219 42.0941 26.5038C40.2165 28.1457 38.7063 30.1399 37.4442 32.2817C37.3406 32.4658 36.9375 32.3924 36.801 32.3479C36.4903 32.2539 36.1674 32.0236 35.945 31.8015C35.5818 31.4274 35.1221 30.8374 35.4314 30.3166Z" fill="#070707"/>
<path d="M26.4092 40.9817C28.7067 39.7134 30.4954 37.6983 32.0014 35.5968C32.1269 35.4169 32.4863 35.4818 32.6447 35.5306C32.9553 35.6246 33.2782 35.8548 33.5006 36.077C33.8339 36.4181 34.3691 37.0749 34.0142 37.5619C32.4069 39.8003 30.5211 41.8013 28.0844 43.1446C27.8868 43.2516 27.4857 43.0743 27.3288 42.9941C27.0212 42.8371 26.7068 42.5632 26.5059 42.2885C26.231 41.9156 25.8713 41.2769 26.4092 40.9817Z" fill="#070707"/>
<path d="M13.5225 41.4993C15.9755 42.5245 18.6649 42.9717 21.3204 42.6321C21.9391 42.5521 22.5535 43.011 22.9051 43.4917C23.0584 43.7073 23.6301 44.7159 23.0018 44.7986C20.026 45.176 17.0136 44.7571 14.2515 43.6064C13.6367 43.3493 13.0457 42.8632 12.8284 42.2157C12.6636 41.7189 12.9664 41.2671 13.5286 41.5028L13.5225 41.4993Z" fill="#070707"/>
<path d="M2.83283 33.8119C4.99753 35.7655 7.05409 37.6099 9.47279 39.2702C9.88773 39.5522 10.5431 40.2685 10.3703 40.8338C10.1864 41.4333 9.35191 40.9636 9.05892 40.7664C6.49104 38.9978 4.16298 36.9037 1.85332 34.82C1.54846 34.5434 0.935359 33.7377 1.33706 33.3255C1.73876 32.9133 2.55251 33.549 2.83628 33.8057L2.83283 33.8119Z" fill="#070707"/>
<path d="M66.9719 38.1393C71.1612 39.568 75.3282 41.065 79.5106 42.506L78.787 43.2461C77.8126 39.3929 76.4416 35.6559 74.6455 32.0998C74.4385 31.6924 74.3129 31.0399 74.9653 31.0435C75.6177 31.0471 76.2719 31.7224 76.5433 32.2307C78.5116 35.9403 80.021 39.8764 80.9969 43.9566C81.1252 44.4894 80.8958 44.9259 80.2733 44.6967C76.0932 43.2085 71.8917 41.7729 67.7124 40.269C67.0865 40.046 66.4829 39.4962 66.2682 38.8583C66.0927 38.3231 66.4108 37.9446 66.9719 38.1393Z" fill="#070707"/>
</g>
<defs>
<clipPath id="clip0_2731_21777">
<rect width="74.8982" height="40.938" fill="white" transform="matrix(0.871447 0.49049 0.49049 -0.871447 0 35.6758)"/>
</clipPath>
</defs>
</svg>
