<svg width="20" height="34" viewBox="0 0 20 34" fill="none" xmlns="http://www.w3.org/2000/svg">
<path d="M7.86561 1.77563C8.04655 2.47186 8.18875 3.16811 8.29214 3.88966C8.27922 3.80105 8.26626 3.7251 8.25333 3.63649C8.4472 5.04162 8.47307 6.48473 8.27921 7.88986C8.29213 7.80125 8.30503 7.72529 8.31795 7.63668C8.16287 8.77598 7.86561 9.88996 7.41327 10.9406C7.45204 10.8647 7.47793 10.7887 7.5167 10.7128C7.29699 11.2191 7.05144 11.7128 6.75419 12.1812C6.61203 12.4217 6.44399 12.6622 6.27597 12.8901C6.19843 12.9914 6.12091 13.0927 6.04337 13.1939C6.25015 12.9281 6.08212 13.1433 6.03043 13.2066C5.97873 13.2699 5.92701 13.3332 5.87531 13.3838C5.51344 13.8142 5.09989 14.2066 4.6734 14.5737C4.57001 14.6624 4.45369 14.751 4.3503 14.8396C4.28568 14.8902 4.06595 15.0548 4.33736 14.8522C4.27274 14.8902 4.22106 14.9408 4.15644 14.9915C3.91088 15.1687 3.65241 15.3333 3.39393 15.4978C2.90281 15.789 2.41167 16.0422 1.88178 16.2574C1.95933 16.2194 2.03685 16.1941 2.11439 16.1561C1.73959 16.308 1.36483 16.4599 0.990034 16.6245C0.731552 16.7384 0.486007 16.8397 0.292146 17.0295C-0.147273 17.4346 -0.0697666 18.1309 0.382576 18.4727C0.61521 18.6499 0.925426 18.7005 1.19683 18.7765C1.6621 18.9157 2.12733 19.0803 2.57967 19.2702C2.50213 19.2322 2.42461 19.2069 2.34706 19.1689C3.57485 19.6879 4.76386 20.3335 5.82363 21.1184C5.84948 21.1437 5.87534 21.1563 5.90119 21.1817C5.68148 21.0171 5.77193 21.093 5.82363 21.1184C5.88825 21.169 5.93993 21.207 6.00456 21.2576C6.12087 21.3462 6.2372 21.4475 6.34059 21.5361C6.53446 21.7133 6.7283 21.8905 6.90924 22.0931C6.99971 22.1817 7.07725 22.283 7.16772 22.3842C7.2065 22.4349 7.24525 22.4855 7.28403 22.5361C7.3228 22.5868 7.38747 22.6754 7.20653 22.4475C7.23238 22.4855 7.25818 22.5108 7.28403 22.5488C7.43912 22.7514 7.59426 22.9666 7.7235 23.1944C8.05952 23.7134 8.33089 24.2704 8.58937 24.8401C8.5506 24.7641 8.52478 24.6882 8.48601 24.6122C9.41654 26.7895 9.843 29.1314 10.2566 31.448C10.36 32.0683 10.4763 32.6886 10.5926 33.3088C10.6314 33.524 10.8511 33.7772 11.032 33.8785C11.2259 33.9798 11.4327 34.0177 11.6524 33.9924C12.1306 33.9291 12.4795 33.5367 12.4925 33.0557C12.5312 32.005 12.57 30.9543 12.6088 29.891C12.6475 28.8782 12.6475 27.8529 12.7897 26.8402C12.7768 26.9288 12.7639 27.0047 12.751 27.0933C12.8802 26.2199 13.074 25.3464 13.3067 24.4983C13.423 24.0805 13.5522 23.6628 13.6815 23.2451C13.7978 22.9033 13.9012 22.5488 14.0434 22.207C14.0046 22.283 13.9787 22.3589 13.9399 22.4349C14.1209 22.0298 14.3535 21.65 14.6249 21.2956C14.6637 21.245 14.7025 21.1943 14.7413 21.131C14.8317 21.0171 14.5732 21.3336 14.7154 21.1563C14.8058 21.0424 14.8963 20.9411 14.9868 20.8272C15.1548 20.6247 15.3358 20.4348 15.5167 20.2449C15.9044 19.8525 16.318 19.4727 16.7445 19.1056C16.8479 19.017 16.9513 18.941 17.0546 18.8524C17.1063 18.8144 17.1581 18.7765 17.2098 18.7258C17.2356 18.7005 17.2614 18.6752 17.3002 18.6625C17.2614 18.6879 17.1064 18.8145 17.2227 18.7132C17.4295 18.5613 17.6492 18.4094 17.856 18.2575C18.2825 17.979 18.7219 17.7131 19.2001 17.5232C19.1225 17.5612 19.045 17.5865 18.9675 17.6245C19.0062 17.6119 19.045 17.5992 19.0838 17.5739C19.3164 17.4853 19.5361 17.3587 19.6653 17.1435C19.7687 16.9536 19.8075 16.7511 19.7816 16.5359C19.717 16.0675 19.3164 15.713 18.8253 15.713C18.6056 15.713 18.3859 15.7004 18.1791 15.6751C18.2695 15.6877 18.3471 15.7004 18.4376 15.713C18.0111 15.6497 17.5845 15.5358 17.1839 15.3712C17.2614 15.4092 17.339 15.4345 17.4166 15.4725C17.171 15.3712 16.9383 15.2573 16.7186 15.1181C16.6023 15.0548 16.499 14.9788 16.3826 14.9155C16.3309 14.8775 16.2663 14.8396 16.2146 14.8016C16.1887 14.7889 16.1629 14.7636 16.137 14.751C16.1241 14.7383 16.1112 14.7256 16.0983 14.7256C16.0078 14.6497 16.2275 14.8269 16.2146 14.8142C15.7752 14.4598 15.3616 14.08 14.9739 13.6623C14.8834 13.5484 14.78 13.4471 14.6896 13.3332C14.6508 13.2825 14.5991 13.2192 14.5603 13.1686C14.4569 13.042 14.6637 13.2952 14.6249 13.2446C14.5991 13.2066 14.5732 13.1813 14.5474 13.1433C14.3535 12.9028 14.1855 12.6496 14.0046 12.3964C13.6427 11.8647 13.3196 11.3078 13.0224 10.7381C12.6734 10.0798 12.3503 9.39626 12.0531 8.71269C12.0918 8.78864 12.1177 8.8646 12.1564 8.94055C11.2905 6.92779 10.6184 4.82642 10.0627 2.69973C9.93347 2.20603 9.81717 1.725 9.70086 1.23131C9.58454 0.750269 8.99001 0.421129 8.51182 0.573035C8.0207 0.775577 7.73637 1.25661 7.86561 1.77563C8.13702 2.92758 8.43428 4.07955 8.78323 5.21884C9.18388 6.54802 9.64919 7.8772 10.1791 9.1684C10.7477 10.5229 11.381 11.8647 12.1823 13.1053C12.8931 14.2193 13.7461 15.3079 14.7929 16.1308C15.297 16.5232 15.8269 16.8903 16.4214 17.1435C17.0805 17.422 17.7267 17.5992 18.4505 17.6625C18.5927 17.6751 18.7348 17.6752 18.864 17.6752C18.7736 17.0549 18.696 16.4346 18.6055 15.8143C17.5458 16.2194 16.6281 16.8523 15.7493 17.5486C14.8705 18.2448 14.0434 19.0297 13.3455 19.9031C12.9965 20.3335 12.6734 20.7639 12.4149 21.2576C12.1177 21.8399 11.9238 22.4729 11.73 23.0931C11.2647 24.5995 10.8898 26.1313 10.7735 27.701C10.7089 28.5871 10.696 29.4859 10.6702 30.372C10.6443 31.2834 10.6055 32.1822 10.5797 33.0936C11.2129 33.005 11.8463 32.9291 12.4795 32.8405C12.0143 30.3213 11.6653 27.7643 10.8382 25.3338C10.4117 24.1059 9.88178 22.8779 9.10634 21.8146C8.71861 21.2703 8.27923 20.7639 7.78812 20.3082C7.21946 19.8018 6.58614 19.3461 5.93993 18.941C5.22911 18.4853 4.47954 18.0802 3.70409 17.7385C3.26467 17.5359 2.81233 17.3587 2.34706 17.1941C1.97226 17.0675 1.59744 16.9663 1.22264 16.8523C1.30019 16.8903 1.37777 16.9156 1.45531 16.9536C1.57163 17.0675 1.67497 17.1688 1.79129 17.2827C1.83006 17.3587 1.85595 17.4346 1.89472 17.5106C1.90764 17.5992 1.92054 17.6752 1.93347 17.7638C1.92054 17.8524 1.90764 17.9283 1.89472 18.0169C1.85595 18.0929 1.83006 18.1689 1.79129 18.2448C1.71374 18.3587 1.61038 18.498 1.49406 18.5486C1.51991 18.5359 1.53283 18.5233 1.55868 18.5106C1.6233 18.4727 1.68792 18.4473 1.75254 18.4094C1.93348 18.3208 2.12733 18.2448 2.32119 18.1688C2.24365 18.2068 2.16613 18.2321 2.08858 18.2701C2.61847 18.0549 3.16126 17.8397 3.67822 17.5739C4.27273 17.2701 4.82846 16.9156 5.35835 16.5232C6.48275 15.675 7.45207 14.675 8.21459 13.5104C9.68793 11.2951 10.3341 8.61141 10.3471 5.99103C10.3471 4.42133 10.1273 2.83897 9.7396 1.31991C9.61036 0.838874 9.04174 0.497091 8.55063 0.661656C8.03366 0.775586 7.72345 1.25661 7.86561 1.77563Z" fill="#B4178B"/>
</svg>
