<svg width="28" height="41" viewBox="0 0 28 41" fill="none" xmlns="http://www.w3.org/2000/svg">
<path d="M6.95895 1.19287C7.06234 1.66125 7.15282 2.12963 7.23037 2.598C7.26914 2.82586 7.3079 3.06638 7.34667 3.3069C7.3596 3.38285 7.42418 3.73731 7.37248 3.45881C7.39833 3.59806 7.4113 3.7373 7.42423 3.86389C7.54054 4.82596 7.63101 5.80069 7.68271 6.77543C7.7861 8.73755 7.77313 10.7123 7.63096 12.6618C7.59219 13.1428 7.55343 13.6239 7.51466 14.1176C7.48881 14.3328 7.47589 14.5606 7.45004 14.7758C7.43711 14.8771 7.42422 14.9784 7.41129 15.0923C7.41129 15.1429 7.39835 15.1936 7.39835 15.2315C7.38543 15.3075 7.39837 15.2695 7.41129 15.1176C7.41129 15.1556 7.39835 15.1936 7.39835 15.2315C7.28204 16.0417 7.1011 16.8392 6.88139 17.6241C6.76507 18.0165 6.63583 18.4089 6.49367 18.7887C6.41612 18.9786 6.35148 19.1684 6.27393 19.3583C6.26101 19.409 6.23517 19.4469 6.22225 19.4976C6.29979 19.2571 6.26103 19.3963 6.23519 19.4596C6.18349 19.5609 6.14471 19.6748 6.09301 19.7761C5.74406 20.5229 5.34341 21.2318 4.86522 21.9154C4.73598 22.1053 4.59385 22.2952 4.45169 22.4724C4.41292 22.523 4.33535 22.5863 4.49043 22.4218C4.45166 22.4724 4.39997 22.523 4.36119 22.5737C4.28365 22.6623 4.219 22.7509 4.14146 22.8395C3.84421 23.1813 3.53405 23.4978 3.19803 23.8142C3.03001 23.9661 2.862 24.1181 2.68106 24.27C2.59059 24.3459 2.48719 24.4092 2.40964 24.4852C2.57766 24.3206 2.51307 24.4092 2.44845 24.4598C2.39676 24.4978 2.34502 24.5358 2.2804 24.5738C1.9056 24.8396 1.505 25.0928 1.09142 25.308C0.72955 25.4979 0.522715 25.9916 0.651955 26.384C0.703652 26.5359 0.781247 26.6878 0.897564 26.8017C1.03973 26.9536 1.36281 27.1056 1.58252 27.0802C2.44843 26.979 3.31436 26.9283 4.18027 26.9536C4.60676 26.9663 5.02031 26.9916 5.44681 27.0296C5.5502 27.0423 5.66651 27.0549 5.76991 27.0676C5.84745 27.0802 6.23517 27.1309 5.89915 27.0802C6.11886 27.1182 6.33858 27.1435 6.55829 27.1815C7.39835 27.3207 8.2384 27.5233 9.05261 27.7765C9.46618 27.9031 9.87975 28.0423 10.2804 28.2069C10.3709 28.2449 10.4484 28.2702 10.5389 28.3081C10.5906 28.3335 10.6423 28.3461 10.694 28.3714C10.4226 28.2702 10.6035 28.3335 10.6681 28.3588C10.8749 28.4474 11.0688 28.536 11.2756 28.6246C12.064 28.9917 12.8265 29.3968 13.5502 29.8525C13.9121 30.0804 14.2611 30.3082 14.5971 30.5614C14.6876 30.6247 14.778 30.688 14.8685 30.7513C14.9072 30.7893 14.9589 30.8146 14.9977 30.8526C14.7909 30.7007 14.8814 30.764 14.9331 30.8019C15.1269 30.9538 15.3079 31.0931 15.4888 31.245C16.1351 31.7767 16.7554 32.359 17.324 32.9666C17.6213 33.2831 17.9056 33.6122 18.19 33.954C18.2417 34.0299 18.3063 34.0932 18.358 34.1692C18.1512 33.9287 18.3967 34.2198 18.4355 34.2831C18.5648 34.4603 18.694 34.6376 18.8232 34.8148C19.366 35.587 19.8572 36.3971 20.2708 37.2326C20.3742 37.4478 20.4775 37.663 20.568 37.8656C20.6455 38.0428 20.4775 37.6504 20.5551 37.8403C20.5809 37.9036 20.6068 37.9795 20.6326 38.0428C20.6714 38.1441 20.7101 38.2453 20.7489 38.3466C20.9298 38.8023 21.085 39.2707 21.2142 39.7391C21.3564 40.2201 21.9121 40.5619 22.4032 40.3973C22.6359 40.3214 22.8685 40.1821 22.9848 39.9669C23.1141 39.7264 23.127 39.4986 23.0882 39.2327C23.0882 39.2201 23.0494 38.9795 23.0752 39.1315C23.1011 39.2834 23.0624 39.0555 23.0624 39.0429C23.0495 38.9542 23.0365 38.8656 23.0236 38.777C22.9977 38.5745 22.9719 38.3719 22.9589 38.1694C22.9331 37.8529 22.9072 37.5364 22.8943 37.22C22.8814 36.7263 22.8943 36.2199 22.8814 35.7262C22.8814 35.1059 22.8426 34.4983 22.778 33.878C22.7263 33.4097 22.6617 32.9413 22.5971 32.4729C22.5583 32.1944 22.5196 31.9159 22.4808 31.6248C22.4679 31.5741 22.4678 31.5235 22.4549 31.4728C22.4161 31.2323 22.4808 31.6248 22.4549 31.4728C22.442 31.3336 22.4162 31.207 22.4032 31.0678C22.2869 30.169 22.1835 29.2576 22.1577 28.3461C22.1448 27.8777 22.1447 27.422 22.1835 26.9536C22.1964 26.7384 22.2093 26.5106 22.2481 26.2954C22.1964 26.5612 22.274 26.1688 22.274 26.1182C22.2998 25.9916 22.3128 25.8776 22.3386 25.7511C22.4162 25.3586 22.5325 24.9789 22.6617 24.6118C22.7134 24.4472 22.778 24.2826 22.8426 24.1181C22.8685 24.0421 22.8944 23.9662 22.9331 23.9029C22.9461 23.8522 22.9719 23.8142 22.9848 23.7636C23.0753 23.5611 22.946 23.8649 22.9848 23.7763C23.295 23.1054 23.6439 22.4597 24.0575 21.8521C24.1738 21.6876 24.3418 21.5103 24.4452 21.3331C24.4323 21.3458 24.3031 21.5103 24.4065 21.3837C24.4452 21.3331 24.484 21.2951 24.5228 21.2445C24.5874 21.1686 24.652 21.0926 24.7166 21.0166C24.988 20.7128 25.2724 20.4217 25.5826 20.1432C25.7377 20.0039 25.9056 19.8647 26.0737 19.7254C26.2029 19.6242 26.0349 19.7634 26.022 19.7634C26.0737 19.7381 26.1125 19.6875 26.1642 19.6621C26.2546 19.5989 26.3451 19.5356 26.4226 19.4723C26.7716 19.2317 27.1335 19.0292 27.5212 18.8393C27.8831 18.6621 28.0898 18.1431 27.9606 17.7633C27.8184 17.3456 27.4695 17.0924 27.03 17.0671C26.5777 17.0418 26.1253 17.0038 25.673 16.9531C25.5696 16.9405 25.4662 16.9278 25.3628 16.9152C25.3111 16.9152 25.2594 16.8899 25.2077 16.8899C25.4662 16.8772 25.2982 16.9025 25.2207 16.8899C24.988 16.8519 24.7554 16.8266 24.5357 16.7886C23.6569 16.6367 22.791 16.4468 21.9509 16.2063C21.5244 16.0797 21.1108 15.9531 20.6972 15.8012C20.5034 15.7252 20.3095 15.6619 20.1027 15.586C20.0769 15.5733 19.8055 15.4721 19.8055 15.4721C19.8443 15.4847 19.883 15.51 19.9218 15.5227C19.883 15.51 19.8443 15.4847 19.8055 15.4721C19.7538 15.4467 19.6892 15.4214 19.6375 15.3961C18.8233 15.0417 18.0478 14.6366 17.2982 14.1682C16.9234 13.9277 16.5486 13.6872 16.1997 13.4213C16.1609 13.396 16.135 13.3707 16.0962 13.3454C16.135 13.3834 16.316 13.4973 16.0962 13.3454C16.0187 13.2821 15.9282 13.2188 15.8507 13.1555C15.6698 13.0162 15.5017 12.8643 15.3337 12.7124C15.0106 12.4213 14.6876 12.1175 14.3903 11.801C14.0801 11.4719 13.8087 11.1174 13.5114 10.7883C13.6924 10.9908 13.4727 10.7377 13.4339 10.6744C13.3693 10.5857 13.3047 10.5098 13.2401 10.4212C13.0979 10.2313 12.9686 10.0414 12.8394 9.85153C12.5809 9.47177 12.3483 9.07933 12.1156 8.68691C11.6633 7.90206 11.2627 7.0919 10.8879 6.25642C10.8749 6.21844 10.8491 6.18046 10.8362 6.14248C10.8233 6.10451 10.7974 6.06653 10.7845 6.02855C10.8362 6.15514 10.8491 6.1678 10.8103 6.07919C10.7586 5.96526 10.7069 5.83866 10.6553 5.72473C10.5648 5.49687 10.4743 5.26903 10.3838 5.04117C10.2029 4.57279 10.0219 4.09174 9.85393 3.62337C9.50498 2.64864 9.18185 1.67391 8.85875 0.699175C8.70366 0.230797 8.17381 -0.123645 7.66977 0.0409205C7.15281 0.180168 6.79094 0.686519 6.95895 1.19287C8.12212 4.75001 9.33697 8.42107 11.5987 11.4719C12.7489 13.0289 14.1318 14.3707 15.7603 15.4721C17.2982 16.5101 19.0171 17.2949 20.7877 17.8646C22.8039 18.5102 24.9105 18.8646 27.03 18.9786C26.862 18.3836 26.707 17.8013 26.5389 17.2063C23.6052 18.6368 21.5632 21.485 20.6714 24.5358C20.1286 26.3967 20.1544 28.3335 20.3741 30.2323C20.4387 30.764 20.5034 31.283 20.5809 31.8146C20.5938 31.9412 20.6197 32.0552 20.6326 32.1817C20.6455 32.2324 20.6456 32.283 20.6585 32.3337C20.6973 32.5742 20.6326 32.1817 20.6585 32.3463C20.6973 32.5868 20.7231 32.84 20.7619 33.0805C20.8523 33.8274 20.9428 34.5743 20.9557 35.3211C20.9686 35.8908 20.9557 36.4604 20.9686 37.0301C20.9945 37.9289 21.0979 38.8277 21.2271 39.7264C21.8475 39.5619 22.4678 39.3846 23.1011 39.2201C22.106 35.7769 20.0381 32.6628 17.324 30.2956C14.61 27.9157 11.2498 26.1814 7.68271 25.4599C5.6924 25.0548 3.62455 24.9282 1.60839 25.1814C1.7764 25.7764 1.93147 26.3587 2.09948 26.9536C5.2788 25.2447 7.42419 22.1686 8.54859 18.852C9.13017 17.1304 9.38866 15.3455 9.53083 13.5353C9.69884 11.5352 9.75055 9.53506 9.67301 7.53496C9.58254 5.2437 9.33694 2.95245 8.85875 0.711831C8.75536 0.230794 8.14796 -0.09833 7.66977 0.0535762C7.11404 0.192824 6.85556 0.67386 6.95895 1.19287Z" fill="#B4178B"/>
</svg>
