<svg width="136" height="45" viewBox="0 0 136 45" fill="none" xmlns="http://www.w3.org/2000/svg">
<g clip-path="url(#clip0_2731_21762)">
<path d="M121.338 25.0072C123.125 24.7818 124.895 24.4702 126.649 24.0783C127.123 23.9714 127.876 24.1178 128.2 24.5007C128.559 24.9206 128.019 25.1594 127.676 25.2379C125.923 25.6357 124.147 25.9422 122.366 26.1668C121.869 26.2296 121.16 26.1541 120.815 25.7444C120.469 25.3347 120.974 25.0532 121.338 25.0072Z" fill="#070707"/>
<path d="M110.47 25.2264C110.737 25.2516 111.01 25.2702 111.283 25.2945C111.366 25.3017 111.366 25.3017 111.283 25.2945C111.366 25.3017 111.449 25.3031 111.532 25.3103C111.656 25.3181 111.781 25.326 111.905 25.3339C112.425 25.3624 112.945 25.3851 113.47 25.4013C114.531 25.4323 115.6 25.427 116.658 25.3877C117.074 25.3765 117.862 25.5243 118.026 25.9863C118.194 26.4773 117.413 26.5758 117.121 26.5891C114.851 26.6635 112.574 26.5858 110.311 26.3885C109.973 26.3606 109.173 26.12 109.237 25.6527C109.302 25.1854 110.156 25.2071 110.471 25.2322L110.47 25.2264Z" fill="#070707"/>
<path d="M100.244 23.2726C101.202 23.5579 102.169 23.8185 103.145 24.0546C103.623 24.1708 104.101 24.2754 104.584 24.3793C104.348 24.3267 104.656 24.3938 104.71 24.4046C104.855 24.4334 104.994 24.463 105.137 24.4861C105.39 24.5308 105.637 24.582 105.889 24.6267C106.226 24.6843 107.031 24.8771 106.963 25.3625C106.895 25.8479 106.042 25.8378 105.73 25.783C103.621 25.4132 101.532 24.9173 99.4813 24.3048C99.1884 24.2181 98.4788 23.9014 98.7724 23.4817C99.066 23.062 99.8657 23.1613 100.25 23.2718L100.244 23.2726Z" fill="#070707"/>
<path d="M90.1741 19.361C92.0274 20.2221 93.9044 21.0391 95.8175 21.7691C96.1444 21.8927 96.5658 22.3458 96.1245 22.6193C95.65 22.9088 95.0014 22.7963 94.5139 22.6106C92.6008 21.8806 90.7295 21.0629 88.8705 20.2024C88.5587 20.0592 88.1056 19.6337 88.5635 19.3522C89.0214 19.0707 89.7126 19.1484 90.1741 19.361Z" fill="#070707"/>
<path d="M81.6036 15.2084C83.1603 15.9539 84.7026 16.7248 86.255 17.4826C86.4243 17.5672 86.6703 17.701 86.7371 17.9045C86.7937 18.074 86.7094 18.2436 86.562 18.3328C86.1207 18.6063 85.4021 18.5439 84.9514 18.3241C83.399 17.5662 81.8509 16.7961 80.3 16.0498C80.1307 15.9652 79.884 15.8256 79.818 15.6279C79.7613 15.4584 79.8457 15.2888 79.993 15.1996C80.4401 14.9254 81.1472 14.9892 81.6036 15.2084Z" fill="#070707"/>
<path d="M71.1599 10.9926C73.1986 11.6008 75.1955 12.3438 77.1572 13.1795C77.474 13.3161 77.9113 13.7555 77.4642 14.0297C77.0171 14.3039 76.3251 14.2205 75.8535 14.0209C74.9349 13.6306 74.0069 13.259 73.0703 12.9121C73.0088 12.8904 72.9408 12.8637 72.8736 12.8427C72.7629 12.8037 72.7441 12.7943 72.8121 12.821C72.8801 12.8478 72.8613 12.8384 72.7506 12.7994C72.6834 12.7784 72.6212 12.7509 72.5539 12.73C72.3268 12.6527 72.099 12.5696 71.8668 12.4988C71.3765 12.3369 70.8811 12.1816 70.3864 12.0321C70.0935 11.9454 69.3839 11.6287 69.6775 11.209C69.9712 10.7893 70.7701 10.8828 71.1548 10.9991L71.1599 10.9926Z" fill="#070707"/>
<path d="M59.0094 9.75374C61.4226 9.37278 63.8994 9.44888 66.2993 9.89377C66.6362 9.95723 67.4411 10.1442 67.3731 10.6296C67.3051 11.115 66.4521 11.1049 66.1397 11.0501C64.0406 10.6614 62.1335 10.5841 60.0368 10.9134C59.5475 10.9927 58.8238 10.8898 58.4856 10.4909C58.1475 10.0921 58.6524 9.81055 59.0094 9.75374Z" fill="#070707"/>
<path d="M48.3514 15.0325C50.1867 13.4235 52.2082 12.0794 54.4449 11.0908C54.9181 10.8839 55.6644 11.0252 56.0768 11.3147C56.4893 11.6041 56.3914 11.9461 55.963 12.1355C53.8766 13.0581 51.9772 14.3926 50.2632 15.8922C49.713 16.3737 47.5362 15.7417 48.3514 15.0325Z" fill="#070707"/>
<path d="M39.3477 25.8511C40.9485 23.5004 42.6007 21.1845 44.4476 19.0147C44.7752 18.6319 45.491 18.6712 45.9249 18.8048C46.1758 18.885 46.9715 19.232 46.6337 19.6279C44.7862 21.7918 43.134 24.1078 41.5339 26.4642C41.0982 27.1079 38.8572 26.5723 39.3477 25.8511Z" fill="#070707"/>
<path d="M32.7415 34.78C34.5347 33.0703 36.0587 31.0884 37.2723 28.9279C37.3682 28.7568 37.6877 28.6812 37.8488 28.655C38.1307 28.6077 38.4748 28.6349 38.7439 28.7187C39.0736 28.8184 39.7022 29.0982 39.4527 29.5418C38.2333 31.703 36.7151 33.6842 34.9219 35.3939C34.5501 35.7528 33.9211 35.7497 33.4446 35.6038C33.2124 35.533 32.9535 35.4362 32.7884 35.2451C32.6914 35.1278 32.5935 34.9106 32.7299 34.7815L32.7415 34.78Z" fill="#070707"/>
<path d="M22.875 39.5686C22.7825 39.5803 23.0955 39.5467 23.1418 39.5409C23.2863 39.5226 23.4251 39.5051 23.5696 39.4869C23.8125 39.4562 24.0539 39.414 24.2953 39.3718C24.7831 39.2808 25.2333 39.171 25.7196 39.0214C26.7088 38.7141 27.6625 38.3112 28.5755 37.8193C29.0537 37.5588 29.7 37.6068 30.1861 37.828C30.4791 37.9618 30.9764 38.4112 30.4931 38.6782C28.2668 39.8892 25.8657 40.5983 23.3372 40.7642C22.9237 40.7928 22.1319 40.616 21.9694 40.1656C21.7952 39.6695 22.583 39.5819 22.8743 39.5628L22.875 39.5686Z" fill="#070707"/>
<path d="M13.9062 36.7075C14.3368 37.0005 14.7724 37.287 15.2166 37.5488C15.3374 37.6219 15.464 37.6942 15.5841 37.7615C15.6347 37.7904 15.6984 37.8295 15.6094 37.776C15.6659 37.8042 15.7172 37.8389 15.7736 37.8671C16.0073 37.9966 16.2453 38.1137 16.4891 38.2301C16.9578 38.4536 17.4302 38.6589 17.9177 38.8447C18.0103 38.8801 18.0168 38.8851 17.9177 38.8447C17.9792 38.8663 18.0348 38.8888 18.0956 38.9046C18.212 38.9429 18.335 38.9863 18.4572 39.0239C18.7262 39.1077 19.0003 39.1849 19.2795 39.2557C19.5825 39.3293 20.2769 39.6656 19.9883 40.0787C19.6997 40.4919 18.9051 40.3861 18.511 40.2886C16.2295 39.7111 14.1012 38.6256 12.1649 37.2921C12.0296 37.1974 11.8551 37.0251 11.8845 36.8389C11.9139 36.6527 12.1212 36.5265 12.2794 36.4771C12.7931 36.3122 13.467 36.392 13.9113 36.701L13.9062 36.7075Z" fill="#070707"/>
<path d="M3.66858 28.5216C5.99411 30.0532 8.04761 31.9429 10.1552 33.7492C10.2869 33.8621 10.4635 34.0046 10.4356 34.2024C10.412 34.3879 10.1989 34.5149 10.0407 34.5643C9.57751 34.711 8.80397 34.6791 8.40879 34.3404C6.30047 32.5282 4.2477 30.6444 1.92217 29.1128C1.53723 28.8552 1.59014 28.4365 2.03597 28.2919C2.5555 28.1263 3.21273 28.2141 3.66785 28.5158L3.66858 28.5216Z" fill="#070707"/>
<path d="M121.943 28.6944C124.172 28.0188 126.379 27.2577 128.552 26.4126C129.503 26.0394 130.518 25.7053 131.419 25.209C132.089 24.8361 132.708 24.3459 132.633 23.5136L133.175 24.1339C130.006 22.9501 126.646 22.2496 123.274 22.0627C122.848 22.0399 122.008 21.9457 121.85 21.4359C121.692 20.926 122.463 20.7993 122.793 20.8106C126.839 20.9831 130.79 21.8034 134.577 23.233C134.86 23.3385 135.092 23.5448 135.119 23.8534C135.294 25.8917 132.237 26.7072 130.821 27.2684C128.438 28.2107 126.018 29.0517 123.563 29.7971C123.019 29.9598 122.301 29.9032 121.834 29.5559C121.447 29.2751 121.451 28.8448 121.954 28.6872L121.943 28.6944Z" fill="#070707"/>
</g>
<defs>
<clipPath id="clip0_2731_21762">
<rect width="133" height="28" fill="white" transform="matrix(0.992137 -0.125157 -0.125157 -0.992137 3.71484 44.9453)"/>
</clipPath>
</defs>
</svg>
