<svg width="34" height="33" viewBox="0 0 34 33" fill="none" xmlns="http://www.w3.org/2000/svg">
<path fill-rule="evenodd" clip-rule="evenodd" d="M12.6667 6.1875C12.8908 6.18755 13.1088 6.26057 13.2876 6.39553C13.4665 6.5305 13.5966 6.72004 13.6581 6.9355L14.776 10.8488C15.0167 11.6915 15.4682 12.459 16.088 13.0788C16.7077 13.6985 17.4752 14.1501 18.318 14.3908L22.2312 15.5086C22.4466 15.5703 22.6359 15.7004 22.7708 15.8793C22.9056 16.0581 22.9785 16.276 22.9785 16.5C22.9785 16.724 22.9056 16.9419 22.7708 17.1207C22.6359 17.2996 22.4466 17.4297 22.2312 17.4914L18.318 18.6093C17.4752 18.8499 16.7077 19.3015 16.088 19.9212C15.4682 20.541 15.0167 21.3085 14.776 22.1513L13.6581 26.0645C13.5964 26.2798 13.4663 26.4692 13.2875 26.604C13.1086 26.7388 12.8907 26.8118 12.6667 26.8118C12.4428 26.8118 12.2249 26.7388 12.046 26.604C11.8671 26.4692 11.737 26.2798 11.6754 26.0645L10.5575 22.1513C10.3168 21.3085 9.86525 20.541 9.2455 19.9212C8.62575 19.3015 7.85825 18.8499 7.01549 18.6093L3.10224 17.4914C2.88692 17.4297 2.69754 17.2996 2.56272 17.1207C2.4279 16.9419 2.35498 16.724 2.35498 16.5C2.35498 16.276 2.4279 16.0581 2.56272 15.8793C2.69754 15.7004 2.88692 15.5703 3.10224 15.5086L7.01549 14.3908C7.85825 14.1501 8.62575 13.6985 9.2455 13.0788C9.86525 12.459 10.3168 11.6915 10.5575 10.8488L11.6754 6.9355C11.7369 6.72004 11.867 6.5305 12.0458 6.39553C12.2247 6.26057 12.4427 6.18755 12.6667 6.1875ZM25.0417 2.0625C25.2718 2.06237 25.4953 2.13918 25.6767 2.28069C25.8581 2.42221 25.9869 2.62032 26.0427 2.8435L26.3975 4.268C26.5568 4.90233 26.8852 5.48157 27.3477 5.94404C27.8102 6.40651 28.3894 6.73491 29.0237 6.89425L30.4482 7.249C30.6718 7.30439 30.8705 7.43305 31.0124 7.61447C31.1544 7.7959 31.2315 8.01963 31.2315 8.25C31.2315 8.48037 31.1544 8.7041 31.0124 8.88553C30.8705 9.06695 30.6718 9.19561 30.4482 9.251L29.0237 9.60575C28.3894 9.76509 27.8102 10.0935 27.3477 10.556C26.8852 11.0184 26.5568 11.5977 26.3975 12.232L26.0427 13.6565C25.9874 13.8801 25.8587 14.0787 25.6773 14.2207C25.4958 14.3627 25.2721 14.4398 25.0417 14.4398C24.8114 14.4398 24.5876 14.3627 24.4062 14.2207C24.2248 14.0787 24.0961 13.8801 24.0407 13.6565L23.686 12.232C23.5273 11.5973 23.1992 11.0177 22.7366 10.5552C22.274 10.0926 21.6944 9.76441 21.0597 9.60575L19.6352 9.251C19.4116 9.19561 19.213 9.06695 19.071 8.88553C18.9291 8.7041 18.8519 8.48037 18.8519 8.25C18.8519 8.01963 18.9291 7.7959 19.071 7.61447C19.213 7.43305 19.4116 7.30439 19.6352 7.249L21.0597 6.89425C21.6944 6.73559 22.274 6.40743 22.7366 5.94485C23.1992 5.48227 23.5273 4.90266 23.686 4.268L24.0407 2.8435C24.0966 2.62032 24.2254 2.42221 24.4068 2.28069C24.5882 2.13918 24.8117 2.06237 25.0417 2.0625ZM22.9792 20.625C23.1958 20.6249 23.4069 20.6929 23.5827 20.8196C23.7584 20.9462 23.8898 21.1249 23.9582 21.3304L24.5 22.957C24.7062 23.5716 25.1875 24.0556 25.8035 24.2605L27.4301 24.8036C27.6349 24.8724 27.813 25.0038 27.9391 25.1792C28.0653 25.3546 28.1331 25.5652 28.1331 25.7813C28.1331 25.9973 28.0653 26.2079 27.9391 26.3833C27.813 26.5587 27.6349 26.6901 27.4301 26.7589L25.8035 27.302C25.5 27.4033 25.2242 27.5738 24.998 27.8C24.7718 28.0263 24.6013 28.302 24.5 28.6055L23.9569 30.2321C23.8881 30.437 23.7567 30.615 23.5813 30.7412C23.4059 30.8673 23.1953 30.9352 22.9792 30.9352C22.7632 30.9352 22.5526 30.8673 22.3772 30.7412C22.2017 30.615 22.0704 30.437 22.0016 30.2321L21.4585 28.6055C21.3572 28.302 21.1867 28.0263 20.9605 27.8C20.7342 27.5738 20.4585 27.4033 20.155 27.302L18.5284 26.7589C18.3235 26.6901 18.1455 26.5587 18.0193 26.3833C17.8932 26.2079 17.8253 25.9973 17.8253 25.7813C17.8253 25.5652 17.8932 25.3546 18.0193 25.1792C18.1455 25.0038 18.3235 24.8724 18.5284 24.8036L20.155 24.2605C20.4585 24.1592 20.7342 23.9887 20.9605 23.7625C21.1867 23.5363 21.3572 23.2605 21.4585 22.957L22.0016 21.3304C22.07 21.1251 22.2012 20.9465 22.3766 20.82C22.5521 20.6934 22.7629 20.6252 22.9792 20.625Z" fill="#DBC3FF"/>
</svg>
