<svg width="32" height="33" viewBox="0 0 32 33" fill="none" xmlns="http://www.w3.org/2000/svg">
<path d="M6.99023 30.4605H25.0402C25.332 30.4605 25.6118 30.3446 25.8181 30.1383C26.0243 29.932 26.1402 29.6522 26.1402 29.3605V2.98047C26.1402 2.68873 26.0243 2.40894 25.8181 2.20265C25.6118 1.99636 25.332 1.88047 25.0402 1.88047H13.6602C13.3685 1.88047 13.0887 1.99636 12.8824 2.20265C12.6763 2.40875 12.5604 2.68822 12.5602 2.97967L12.4718 8.76047H6.99023C6.6985 8.76047 6.41871 8.87636 6.21242 9.08265C6.00613 9.28894 5.89023 9.56873 5.89023 9.86047V29.3605C5.89023 29.6522 6.00613 29.932 6.21242 30.1383C6.41871 30.3446 6.6985 30.4605 6.99023 30.4605ZM23.9902 4.10047V28.2605H8.09023V10.9805H13.5002C13.792 10.9805 14.0718 10.8646 14.2781 10.6583C14.4842 10.4522 14.6 10.1727 14.6002 9.88121C14.6002 9.88096 14.6002 9.88071 14.6002 9.88047L14.6887 4.10047H23.9902Z" fill="black" stroke="black" stroke-width="0.2"/>
<path d="M6.14877 9.11054L6.14875 9.11052L6.14731 9.11207C5.99917 9.2715 5.90165 9.47129 5.86708 9.68616C5.83252 9.90103 5.86248 10.1213 5.95315 10.3192C6.04383 10.517 6.19116 10.6835 6.37649 10.7976C6.56127 10.9113 6.77556 10.9679 6.99238 10.9601H13.5005C13.5006 10.9601 13.5006 10.9601 13.5006 10.9601C13.7885 10.9602 14.065 10.8473 14.2707 10.6458C14.4764 10.4442 14.5948 10.1701 14.6005 9.88214L14.6006 9.88174L14.7106 3.02174L14.7106 3.02164C14.7139 2.80073 14.6506 2.58395 14.5289 2.39952C14.4074 2.21521 14.2331 2.07175 14.0289 1.9878C13.8263 1.90267 13.6028 1.8802 13.3872 1.92331C13.1715 1.96645 12.9737 2.07327 12.8193 2.22996L12.8188 2.23054L6.14877 9.11054ZM12.4668 5.75067L12.422 8.76014H9.54692L12.4668 5.75067ZM12.1306 24.9401H21.3706C21.6623 24.9401 21.9421 24.8242 22.1484 24.618C22.3547 24.4117 22.4706 24.1319 22.4706 23.8401C22.4706 23.5484 22.3547 23.2686 22.1484 23.0623C21.9421 22.856 21.6623 22.7401 21.3706 22.7401H12.1306C11.8388 22.7401 11.559 22.856 11.3527 23.0623C11.1465 23.2686 11.0306 23.5484 11.0306 23.8401C11.0306 24.1319 11.1465 24.4117 11.3527 24.618C11.559 24.8242 11.8388 24.9401 12.1306 24.9401ZM12.1306 19.9401H21.3706C21.6623 19.9401 21.9421 19.8242 22.1484 19.618C22.3547 19.4117 22.4706 19.1319 22.4706 18.8401C22.4706 18.5484 22.3547 18.2686 22.1484 18.0623C21.9421 17.856 21.6623 17.7401 21.3706 17.7401H12.1306C11.8388 17.7401 11.559 17.856 11.3527 18.0623C11.1465 18.2686 11.0306 18.5484 11.0306 18.8401C11.0306 19.1319 11.1465 19.4117 11.3527 19.618C11.559 19.8242 11.8388 19.9401 12.1306 19.9401ZM12.1306 14.9401H21.3706C21.6623 14.9401 21.9421 14.8242 22.1484 14.618C22.3547 14.4117 22.4706 14.1319 22.4706 13.8401C22.4706 13.5484 22.3547 13.2686 22.1484 13.0623C21.9421 12.856 21.6623 12.7401 21.3706 12.7401H12.1306C11.8388 12.7401 11.559 12.856 11.3527 13.0623C11.1465 13.2686 11.0306 13.5484 11.0306 13.8401C11.0306 14.1319 11.1465 14.4117 11.3527 14.618C11.559 14.8242 11.8388 14.9401 12.1306 14.9401Z" fill="black" stroke="black" stroke-width="0.2"/>
</svg>
