<svg width="32" height="33" viewBox="0 0 32 33" fill="none" xmlns="http://www.w3.org/2000/svg">
<path d="M15.9902 16.1797H16.0036" stroke="#070707" stroke-width="2.66667" stroke-linecap="round" stroke-linejoin="round"/>
<path d="M21.3229 8.17708V5.51042C21.3229 4.80317 21.042 4.1249 20.5419 3.6248C20.0418 3.1247 19.3635 2.84375 18.6563 2.84375H13.3229C12.6157 2.84375 11.9374 3.1247 11.4373 3.6248C10.9372 4.1249 10.6563 4.80317 10.6562 5.51042V8.17708" stroke="#070707" stroke-width="2.66667" stroke-linecap="round" stroke-linejoin="round"/>
<path d="M29.3229 17.5137C25.3666 20.1256 20.7303 21.5181 15.9896 21.5181C11.2489 21.5181 6.61253 20.1256 2.65625 17.5137" stroke="#070707" stroke-width="2.66667" stroke-linecap="round" stroke-linejoin="round"/>
<path d="M26.6562 8.17969H5.32292C3.85016 8.17969 2.65625 9.37359 2.65625 10.8464V24.1797C2.65625 25.6524 3.85016 26.8464 5.32292 26.8464H26.6562C28.129 26.8464 29.3229 25.6524 29.3229 24.1797V10.8464C29.3229 9.37359 28.129 8.17969 26.6562 8.17969Z" stroke="#070707" stroke-width="2.66667" stroke-linecap="round" stroke-linejoin="round"/>
</svg>
