<svg width="32" height="33" viewBox="0 0 32 33" fill="none" xmlns="http://www.w3.org/2000/svg">
<path d="M15.9896 29.5124C23.3534 29.5124 29.3229 23.5428 29.3229 16.179C29.3229 8.81524 23.3534 2.8457 15.9896 2.8457C8.62579 2.8457 2.65625 8.81524 2.65625 16.179C2.65625 23.5428 8.62579 29.5124 15.9896 29.5124Z" stroke="#070707" stroke-width="2.66667" stroke-linecap="round" stroke-linejoin="round"/>
<path d="M15.9902 17.5137C18.1994 17.5137 19.9902 15.7228 19.9902 13.5137C19.9902 11.3045 18.1994 9.51367 15.9902 9.51367C13.7811 9.51367 11.9902 11.3045 11.9902 13.5137C11.9902 15.7228 13.7811 17.5137 15.9902 17.5137Z" stroke="#070707" stroke-width="2.66667" stroke-linecap="round" stroke-linejoin="round"/>
<path d="M9.323 27.7284V25.5124C9.323 24.8051 9.60395 24.1268 10.104 23.6268C10.6041 23.1267 11.2824 22.8457 11.9897 22.8457H19.9897C20.6969 22.8457 21.3752 23.1267 21.8753 23.6268C22.3754 24.1268 22.6563 24.8051 22.6563 25.5124V27.7284" stroke="#070707" stroke-width="2.66667" stroke-linecap="round" stroke-linejoin="round"/>
</svg>
