<svg width="33" height="32" viewBox="0 0 33 32" fill="none" xmlns="http://www.w3.org/2000/svg">
<circle cx="16.6738" cy="16" r="16" fill="#070707"/>
<path d="M20.6988 17.7481C20.5238 17.6606 19.3863 17.1356 19.2113 17.0481C19.0363 16.9606 18.8613 16.9606 18.6863 17.1356C18.5113 17.3106 18.1613 17.8356 17.9863 18.0106C17.8988 18.1856 17.7238 18.1856 17.5488 18.0981C16.9363 17.8356 16.3238 17.4856 15.7988 17.0481C15.3613 16.6106 14.9238 16.0856 14.5738 15.5606C14.4863 15.3856 14.5738 15.2106 14.6613 15.1231C14.7488 15.0356 14.8363 14.8606 15.0113 14.7731C15.0988 14.6856 15.1863 14.5106 15.1863 14.4231C15.2738 14.3356 15.2738 14.1606 15.1863 14.0731C15.0988 13.9856 14.6613 12.9356 14.4863 12.4981C14.3988 11.8856 14.2238 11.8856 14.0488 11.8856H13.6113C13.4363 11.8856 13.1738 12.0606 13.0863 12.1481C12.5613 12.6731 12.2988 13.2856 12.2988 13.9856C12.3863 14.7731 12.6488 15.5606 13.1738 16.2606C14.1363 17.6606 15.3613 18.7981 16.8488 19.4981C17.2863 19.6731 17.6363 19.8481 18.0738 19.9356C18.5113 20.1106 18.9488 20.1106 19.4738 20.0231C20.0863 19.9356 20.6113 19.4981 20.9613 18.9731C21.1363 18.6231 21.1363 18.2731 21.0488 17.9231L20.6988 17.7481ZM22.8863 9.78557C19.4738 6.37307 13.9613 6.37307 10.5488 9.78557C7.74883 12.5856 7.22383 16.8731 9.14883 20.2856L7.92383 24.7481L12.5613 23.5231C13.8738 24.2231 15.2738 24.5731 16.6738 24.5731C21.4863 24.5731 25.3363 20.7231 25.3363 15.9106C25.4238 13.6356 24.4613 11.4481 22.8863 9.78557ZM20.5238 22.0356C19.3863 22.7356 18.0738 23.1731 16.6738 23.1731C15.3613 23.1731 14.1363 22.8231 12.9988 22.2106L12.7363 22.0356L10.0238 22.7356L10.7238 20.1106L10.5488 19.8481C8.44883 16.3481 9.49883 11.9731 12.9113 9.78557C16.3238 7.59807 20.6988 8.73557 22.7988 12.0606C24.8988 15.4731 23.9363 19.9356 20.5238 22.0356Z" fill="white"/>
</svg>
